<svg xmlns="http://www.w3.org/2000/svg" xmlns:xlink="http://www.w3.org/1999/xlink" viewBox="0 0 95 60"><defs><style>.cls-1{fill:url(#red_icon);}.cls-2{fill:url(#red_icon-2);}.cls-3{fill:url(#red_icon-4);}</style><radialGradient id="red_icon" cx="47.5" cy="30" r="23.55" gradientUnits="userSpaceOnUse"><stop offset="0" stop-color="#ff5043"/><stop offset="1" stop-color="#db3b39"/></radialGradient><radialGradient id="red_icon-2" cx="34" cy="28.5" r="3.81" xlink:href="#red_icon"/><radialGradient id="red_icon-4" cx="61" cy="28.5" r="5" xlink:href="#red_icon"/></defs><g id="icons"><path class="cls-1" d="M61,14.83v5.34h8v25H26v-25H61V14.83m5-5H56v5.34H39V9.83H29v5.34H21v35H74v-35H66V9.83Z"/><rect class="cls-2" x="29" y="26.5" width="10" height="4"/><path class="cls-2" d="M38,27.5v2H30v-2h8m1-1H29v4H39v-4Z"/><polygon class="cls-3" points="66 26.5 63 26.5 63 23.5 59 23.5 59 26.5 56 26.5 56 30.5 59 30.5 59 33.5 63 33.5 63 30.5 66 30.5 66 26.5"/><path class="cls-3" d="M62,24.5v3h3v2H62v3H60v-3H57v-2h3v-3h2m1-1H59v3H56v4h3v3h4v-3h3v-4H63v-3Z"/></g></svg>