<svg xmlns="http://www.w3.org/2000/svg" xmlns:xlink="http://www.w3.org/1999/xlink" viewBox="0 0 95 60"><defs><style>.cls-1{fill:url(#radial-gradient);}.cls-2{fill:url(#radial-gradient-2);}</style><radialGradient id="radial-gradient" cx="47.5" cy="33.42" r="22" gradientUnits="userSpaceOnUse"><stop offset="0" stop-color="#8dff90"/><stop offset="1" stop-color="#35c568"/></radialGradient><radialGradient id="radial-gradient-2" cx="24.29" cy="10.1" r="6.85" xlink:href="#radial-gradient"/></defs><g id="icons"><path class="cls-1" d="M69.5,35.92v-5h-.15a21.82,21.82,0,0,0-4.63-11.18l.1-.11L61.29,16.1l-.11.1A21.82,21.82,0,0,0,50,11.57v-.15H45v.15A21.82,21.82,0,0,0,33.82,16.2l-.11-.1-3.53,3.53.1.11a21.82,21.82,0,0,0-4.63,11.18H25.5v5h.15a21.86,21.86,0,0,0,4.63,11.19l-.1.1,3.53,3.54.11-.11A21.92,21.92,0,0,0,45,55.28v.14h5v-.14a21.92,21.92,0,0,0,11.18-4.64l.11.11,3.53-3.54-.1-.1a21.86,21.86,0,0,0,4.63-11.19Zm-8.36,7.61L58.65,41a13.66,13.66,0,0,1-3.54,3.53l2.49,2.49A16.87,16.87,0,0,1,50,50.22V46.68a13.67,13.67,0,0,1-2.5.24,12.85,12.85,0,0,1-2.5-.24v3.54a16.87,16.87,0,0,1-7.6-3.16l2.49-2.49A13.66,13.66,0,0,1,36.35,41l-2.49,2.49a16.78,16.78,0,0,1-3.15-7.61h3.53a13.14,13.14,0,0,1,0-5H30.71a16.74,16.74,0,0,1,3.15-7.6l8.41,8.41a5.5,5.5,0,1,0,5.23-3.81,5.65,5.65,0,0,0-1.7.27l-8.4-8.41A17,17,0,0,1,45,16.63v3.53a13.14,13.14,0,0,1,5,0V16.63a17,17,0,0,1,7.6,3.15l-2.49,2.5a13.66,13.66,0,0,1,3.54,3.53l2.49-2.49a16.87,16.87,0,0,1,3.16,7.6H60.76a13.14,13.14,0,0,1,0,5H64.3A16.91,16.91,0,0,1,61.14,43.53Z"/><polygon class="cls-2" points="31.14 16.95 29.22 5.84 27.02 8.04 22.23 3.25 17.44 8.04 22.23 12.84 20.03 15.04 31.14 16.95"/></g></svg>