<svg xmlns="http://www.w3.org/2000/svg" xmlns:xlink="http://www.w3.org/1999/xlink" viewBox="0 0 95 60"><defs><style>.cls-1{fill:url(#icon_green);}.cls-2{fill:url(#icon_green-2);}.cls-3{fill:url(#icon_green-3);}.cls-4{fill:url(#icon_green-4);}</style><radialGradient id="icon_green" cx="464.65" cy="-208.2" r="15.39" gradientTransform="translate(-336.01 200.84) scale(0.83 0.83)" gradientUnits="userSpaceOnUse"><stop offset="0" stop-color="#8dff90"/><stop offset="1" stop-color="#35c568"/></radialGradient><radialGradient id="icon_green-2" cx="82.08" cy="10.36" r="22.35" gradientTransform="translate(-33.17 19.82) scale(0.98 0.98)" xlink:href="#icon_green"/><radialGradient id="icon_green-3" cx="105.9" cy="10.36" r="16.29" gradientTransform="translate(-33.17 19.82) scale(0.98 0.98)" xlink:href="#icon_green"/><radialGradient id="icon_green-4" cx="58.27" cy="10.36" r="16.29" gradientTransform="translate(-33.17 19.82) scale(0.98 0.98)" xlink:href="#icon_green"/></defs><g id="icons"><path class="cls-1" d="M62.37,27.6,61.42,25a.86.86,0,0,0-.8-.56H58.16a.85.85,0,0,0-.85.85V27h-1V25.15a.85.85,0,0,0-.85-.85H53.24V22.4a.85.85,0,0,0-.85-.85H47.52V20.7h2.6a.85.85,0,1,0,0-1.7h-8.7a.85.85,0,1,0,0,1.7H44v.85H40.48a.85.85,0,0,0-.7.37l-.93,1.35-2.47.37a.85.85,0,0,0-.72.84v3.83H34.28V24.82a.85.85,0,1,0-1.7,0v8.7a.85.85,0,0,0,1.7,0V30h1.38v4.25a.85.85,0,0,0,.85.85h3.05l3.73,3.64a.87.87,0,0,0,.59.24H55.8a.85.85,0,0,0,.85-.85V35.64h.76v1.52a.85.85,0,0,0,.85.85h2.46a.86.86,0,0,0,.81-.59l.85-2.65a1.17,1.17,0,0,0,0-.26V27.89A.93.93,0,0,0,62.37,27.6Zm-1.65,6.77-.63,1.93h-1V34.79a.85.85,0,0,0-.85-.85H55.8a.85.85,0,0,0-.85.85V37.3H44.23l-3.72-3.64a.89.89,0,0,0-.6-.24H37.36v-8.2l2.11-.32a.85.85,0,0,0,.58-.36l.88-1.28H51.54v1.89a.85.85,0,0,0,.85.85h2.18v1.89a.85.85,0,0,0,.85.85h2.74a.85.85,0,0,0,.85-.85v-1.8h1l.7,1.95Z"/><path class="cls-2" d="M47.5,52a22,22,0,1,1,22-22A22,22,0,0,1,47.5,52Zm0-40.17A18.2,18.2,0,1,0,65.7,30,18.21,18.21,0,0,0,47.5,11.8Z"/><path class="cls-3" d="M73.23,30a25.65,25.65,0,0,1-8.42,19l2.54,2.82a29.47,29.47,0,0,0,0-43.62L64.81,11A25.65,25.65,0,0,1,73.23,30Z"/><path class="cls-4" d="M21.77,30a25.65,25.65,0,0,1,8.42-19L27.65,8.19a29.47,29.47,0,0,0,0,43.62L30.19,49A25.65,25.65,0,0,1,21.77,30Z"/></g></svg>