<svg xmlns="http://www.w3.org/2000/svg" xmlns:xlink="http://www.w3.org/1999/xlink" viewBox="0 0 90 80"><defs><style>.cls-1{fill:url(#radial-gradient);}.cls-2{fill:url(#radial-gradient-2);}.cls-3{fill:url(#radial-gradient-3);}.cls-4{fill:url(#radial-gradient-4);}.cls-5{fill:url(#radial-gradient-5);}.cls-6{fill:url(#radial-gradient-6);}.cls-7{fill:url(#radial-gradient-7);}.cls-8{fill:url(#radial-gradient-8);}</style><radialGradient id="radial-gradient" cx="27.45" cy="59.6" r="7.15" gradientUnits="userSpaceOnUse"><stop offset="0" stop-color="#ff5043"/><stop offset="1" stop-color="#db3b39"/></radialGradient><radialGradient id="radial-gradient-2" cx="37.79" cy="59.6" r="7.69" xlink:href="#radial-gradient"/><radialGradient id="radial-gradient-3" cx="50.78" cy="59.6" r="7.49" xlink:href="#radial-gradient"/><radialGradient id="radial-gradient-4" cx="63.05" cy="59.6" r="7.34" xlink:href="#radial-gradient"/><radialGradient id="radial-gradient-5" cx="45.57" cy="29" r="9.23" xlink:href="#radial-gradient"/><radialGradient id="radial-gradient-6" cx="44.62" cy="29.31" r="17.5" xlink:href="#radial-gradient"/><radialGradient id="radial-gradient-7" cx="63.27" cy="29.31" r="12.75" xlink:href="#radial-gradient"/><radialGradient id="radial-gradient-8" cx="25.98" cy="29.31" r="12.75" xlink:href="#radial-gradient"/></defs><g id="icons"><path class="cls-1" d="M32.79,56.18a6.09,6.09,0,0,1-.72,3.11,4.36,4.36,0,0,1-2,1.81,6.82,6.82,0,0,1-2.95.59H25.38v6.5H22.12V51h5a7.6,7.6,0,0,1,3.34.62,3.63,3.63,0,0,1,1.77,1.75A6.66,6.66,0,0,1,32.79,56.18Zm-7.41,2.71H26.6a3.07,3.07,0,0,0,2.11-.62,2.49,2.49,0,0,0,.69-2,2.53,2.53,0,0,0-.63-1.9,2.86,2.86,0,0,0-2-.6H25.38Z"/><path class="cls-2" d="M35.3,64.8l-.8,3.39H31.12L36,51h3.54l4.88,17.18H41.07l-.8-3.39Zm2.51-10.6L36,62h3.66Z"/><path class="cls-3" d="M55.63,55.9a4.86,4.86,0,0,1-.83,2.89,4.77,4.77,0,0,1-2.53,1.74,2.91,2.91,0,0,1,.77.38,3.84,3.84,0,0,1,.81.89,10.33,10.33,0,0,1,.95,1.8L57,68.19H53.29l-2-4.11c-.48-1-.85-1.65-1.12-2.07a2.43,2.43,0,0,0-.74-.8,1.75,1.75,0,0,0-.86-.18h-.74v7.16H44.6V51h5.54a5.88,5.88,0,0,1,4.17,1.26A4.77,4.77,0,0,1,55.63,55.9Zm-3.31.15a2,2,0,0,0-.7-1.71,3.5,3.5,0,0,0-2.1-.52H47.85v4.61h1.4a3.67,3.67,0,0,0,2.33-.6A2.15,2.15,0,0,0,52.32,56.05Z"/><path class="cls-4" d="M60.48,62.93v5.26H57.23V51h3.25v7.38l4-7.38h4.09l-4.34,6.37,4.61,10.81H64.94L62.21,60.4Z"/><path class="cls-5" d="M52.45,24.58a7.85,7.85,0,0,1-.92,4A5.58,5.58,0,0,1,49,30.93a9,9,0,0,1-3.83.76H42.89v8.4H38.68V17.9h6.49a9.82,9.82,0,0,1,4.32.8A4.68,4.68,0,0,1,51.77,21,8.48,8.48,0,0,1,52.45,24.58Zm-9.56,3.49h1.57a4,4,0,0,0,2.73-.79,3.23,3.23,0,0,0,.89-2.52,3.25,3.25,0,0,0-.82-2.46,3.65,3.65,0,0,0-2.59-.78H42.89Z"/><path class="cls-6" d="M44.62,46.81a17.5,17.5,0,1,1,17.5-17.5A17.52,17.52,0,0,1,44.62,46.81Zm0-32a14.5,14.5,0,1,0,14.5,14.5A14.52,14.52,0,0,0,44.62,14.81Z"/><path class="cls-7" d="M65.12,29.31a20.42,20.42,0,0,1-6.71,15.12l2,2.25a23.47,23.47,0,0,0,0-34.75l-2,2.25A20.43,20.43,0,0,1,65.12,29.31Z"/><path class="cls-8" d="M24.12,29.31a20.4,20.4,0,0,1,6.72-15.13l-2-2.25a23.47,23.47,0,0,0,0,34.75l2-2.25A20.39,20.39,0,0,1,24.12,29.31Z"/></g></svg>