<svg id="scales-1" xmlns="http://www.w3.org/2000/svg" viewBox="0 0 2388 1618"><defs><style>.cls-1{fill:#fff;}</style></defs><path class="cls-1" d="M334.67,896.87V871.1h11.42a15.31,15.31,0,0,1,5.24.69,5.75,5.75,0,0,1,2.87,2.46,7.33,7.33,0,0,1,1.07,3.88,6.44,6.44,0,0,1-1.78,4.62,8.94,8.94,0,0,1-5.48,2.39,8.58,8.58,0,0,1,2.05,1.29,17.41,17.41,0,0,1,2.83,3.42l4.49,7h-4.29l-3.41-5.36q-1.5-2.32-2.46-3.55a8,8,0,0,0-1.73-1.73,5.33,5.33,0,0,0-1.56-.68,10.31,10.31,0,0,0-1.9-.13h-3.95v11.45Zm3.41-14.4h7.33a11.06,11.06,0,0,0,3.65-.48,3.9,3.9,0,0,0,2-1.55,4.24,4.24,0,0,0,.68-2.31,3.86,3.86,0,0,0-1.32-3,6.27,6.27,0,0,0-4.2-1.17h-8.15Z"/><path class="cls-1" d="M359.71,896.87V871.1h9.72a24,24,0,0,1,3.92.24,7.86,7.86,0,0,1,3.18,1.21A6.25,6.25,0,0,1,378.6,875a7.86,7.86,0,0,1,.78,3.51,8,8,0,0,1-2.09,5.57q-2.09,2.26-7.56,2.27h-6.61v10.48Zm3.41-13.52h6.66c2.21,0,3.77-.41,4.7-1.23a4.4,4.4,0,0,0,1.39-3.46,4.7,4.7,0,0,0-.82-2.77,3.79,3.79,0,0,0-2.15-1.52,14.81,14.81,0,0,0-3.19-.23h-6.59Z"/><path class="cls-1" d="M382.72,896.87V871.1h5.13l6.1,18.24c.56,1.7,1,3,1.23,3.82.29-.94.75-2.32,1.37-4.13l6.17-17.93h4.59v25.77H404V875.3l-7.48,21.57h-3.08L386,874.93v21.94Z"/><path class="cls-1" d="M336,932.87l5.68-8.09-5.25-7.47h3.29l2.39,3.65q.68,1,1.08,1.74c.43-.64.83-1.21,1.19-1.71l2.62-3.68h3.15l-5.37,7.33,5.78,8.23h-3.24L344.09,928l-.85-1.3-4.09,6.14Z"/><path class="cls-1" d="M368.75,932.87h-2.63v-16.8a13.85,13.85,0,0,1-2.5,1.81,18.09,18.09,0,0,1-2.78,1.37V916.7a16.16,16.16,0,0,0,3.87-2.52,10.12,10.12,0,0,0,2.34-2.87h1.7Z"/><path class="cls-1" d="M374.76,922.28a19.74,19.74,0,0,1,.78-6.13,7.6,7.6,0,0,1,2.33-3.58,6,6,0,0,1,3.89-1.26,6.39,6.39,0,0,1,3,.69,5.66,5.66,0,0,1,2.15,2,10.87,10.87,0,0,1,1.34,3.19,21.42,21.42,0,0,1,.48,5.08,19.62,19.62,0,0,1-.78,6.1,7.59,7.59,0,0,1-2.32,3.59,6,6,0,0,1-3.9,1.26,5.9,5.9,0,0,1-4.88-2.22C375.46,929.22,374.76,926.31,374.76,922.28Zm2.71,0q0,5.28,1.23,7a3.68,3.68,0,0,0,3.06,1.75,3.64,3.64,0,0,0,3.05-1.76c.83-1.17,1.24-3.52,1.24-7s-.41-5.89-1.24-7a3.66,3.66,0,0,0-3.08-1.74,3.37,3.37,0,0,0-2.9,1.54Q377.47,917,377.47,922.28Z"/><path class="cls-1" d="M390.69,922.28a19.74,19.74,0,0,1,.78-6.13,7.67,7.67,0,0,1,2.33-3.58,6,6,0,0,1,3.89-1.26,6.36,6.36,0,0,1,3,.69,5.76,5.76,0,0,1,2.16,2,10.86,10.86,0,0,1,1.33,3.19,21.42,21.42,0,0,1,.48,5.08,19.66,19.66,0,0,1-.77,6.1A7.66,7.66,0,0,1,401.6,932a6,6,0,0,1-3.91,1.26,5.92,5.92,0,0,1-4.88-2.22Q390.69,928.33,390.69,922.28Zm2.71,0q0,5.28,1.24,7a3.54,3.54,0,0,0,6.11,0c.82-1.17,1.23-3.52,1.23-7s-.41-5.89-1.23-7a3.69,3.69,0,0,0-3.09-1.74,3.38,3.38,0,0,0-2.9,1.54Q393.4,917,393.4,922.28Z"/><path class="cls-1" d="M1973.51,896.87V871.1h5.13l6.1,18.24c.56,1.7,1,3,1.23,3.82.29-.94.75-2.32,1.37-4.13l6.17-17.93h4.59v25.77h-3.29V875.3l-7.48,21.57h-3.08l-7.45-21.94v21.94Z"/><path class="cls-1" d="M2002.7,896.87V871.1h9.72a24,24,0,0,1,3.92.24,8,8,0,0,1,3.19,1.21,6.31,6.31,0,0,1,2.06,2.49,8.4,8.4,0,0,1-1.31,9.08q-2.08,2.26-7.56,2.27h-6.61v10.48Zm3.41-13.52h6.67c2.2,0,3.76-.41,4.69-1.23a4.4,4.4,0,0,0,1.39-3.46,4.7,4.7,0,0,0-.82-2.77,3.79,3.79,0,0,0-2.15-1.52,14.76,14.76,0,0,0-3.18-.23h-6.6Z"/><path class="cls-1" d="M2025.92,896.87V871.1h3.41v10.58h13.39V871.1h3.41v25.77h-3.41V884.72h-13.39v12.15Z"/><path class="cls-1" d="M1980.55,932.87V911.39h2.64v12.25l6.24-6.33h3.41l-5.95,5.77,6.55,9.79h-3.25l-5.15-8-1.85,1.79v6.17Z"/><path class="cls-1" d="M1994.78,932.87V917.31h2.36v2.18a5.53,5.53,0,0,1,1.95-1.83,5.41,5.41,0,0,1,2.77-.7,5.08,5.08,0,0,1,2.83.72,3.84,3.84,0,0,1,1.56,2,5.61,5.61,0,0,1,4.81-2.72,4.76,4.76,0,0,1,3.56,1.28,5.49,5.49,0,0,1,1.24,4v10.68h-2.62v-9.8a6.91,6.91,0,0,0-.26-2.28,2.2,2.2,0,0,0-.93-1.12,2.89,2.89,0,0,0-1.58-.42,3.66,3.66,0,0,0-2.72,1.09,4.8,4.8,0,0,0-1.09,3.49v9H2004V922.76a4.47,4.47,0,0,0-.65-2.64,2.45,2.45,0,0,0-2.11-.87,3.84,3.84,0,0,0-2.06.58,3.29,3.29,0,0,0-1.36,1.71,9.52,9.52,0,0,0-.43,3.26v8.07Z"/><path class="cls-1" d="M2017.05,933.23l6.22-22.2h2.11l-6.21,22.2Z"/><path class="cls-1" d="M2026.61,932.87V911.39h2.64v7.71a5.87,5.87,0,0,1,4.65-2.14,6.34,6.34,0,0,1,3,.68,4,4,0,0,1,1.82,1.88,8.64,8.64,0,0,1,.55,3.49v9.86h-2.64V923a4.08,4.08,0,0,0-.85-2.88,3.21,3.21,0,0,0-2.43-.9,4.22,4.22,0,0,0-2.2.61,3.36,3.36,0,0,0-1.47,1.65,7.42,7.42,0,0,0-.44,2.87v8.51Z"/><path class="cls-1" d="M102.2,982.09,56.91,996.37l3,9.53,45.28-14.27C104.14,988.47,103.15,985.29,102.2,982.09Z"/><path class="cls-1" d="M93.47,942.21,62.85,947l.92,5.93,30.63-4.8Q93.9,945.18,93.47,942.21Z"/><path class="cls-1" d="M90.5,901c0-.5,0-1,0-1.51l-31,.17,0,6,31-.17C90.53,904,90.5,902.5,90.5,901Z"/><path class="cls-1" d="M94.4,853.87l-30.63-4.8L62.85,855l30.62,4.79Q93.91,856.82,94.4,853.87Z"/><path class="cls-1" d="M103.65,815.12l-29.61-9-1.74,5.74,29.62,9C102.48,818.94,103.05,817,103.65,815.12Z"/><path class="cls-1" d="M120.47,773.58,77.59,753.13l-4.3,9,42.86,20.45C117.53,779.56,119,776.56,120.47,773.58Z"/><path class="cls-1" d="M141.28,738.46,115.6,721.07l-3.36,5,25.67,17.38C139,741.76,140.14,740.1,141.28,738.46Z"/><path class="cls-1" d="M168.24,705.2l-22.81-21-4.07,4.41,22.8,21C165.5,708.12,166.87,706.66,168.24,705.2Z"/><path class="cls-1" d="M199.84,676.32l-19.39-24.2-4.68,3.75,19.39,24.21C196.71,678.81,198.26,677.55,199.84,676.32Z"/><path class="cls-1" d="M235.4,652.48l-15.53-26.8-5.19,3,15.54,26.82C231.94,654.47,233.66,653.47,235.4,652.48Z"/><path class="cls-1" d="M276,633.52l-17.4-44.18L249.3,593l17.41,44.19Q271.31,635.27,276,633.52Z"/><path class="cls-1" d="M315.18,622l-6.91-30.19-5.85,1.34,6.91,30.19C311.27,622.88,313.22,622.44,315.18,622Z"/><path class="cls-1" d="M357.59,616.11l-2.33-30.94-6,.45,2.32,30.93Q354.58,616.3,357.59,616.11Z"/><path class="cls-1" d="M400.4,616.55l2.32-30.93-6-.45-2.33,30.94Q397.41,616.29,400.4,616.55Z"/><path class="cls-1" d="M442.41,623.28l7.31-31.9L443.87,590,436.56,622Q439.5,622.59,442.41,623.28Z"/><path class="cls-1" d="M485.29,637.19,502.7,593l-9.31-3.66L476,633.52Q480.69,635.28,485.29,637.19Z"/><path class="cls-1" d="M521.11,655.1l15.46-26.66-5.19-3L515.92,652.1Q518.53,653.57,521.11,655.1Z"/><path class="cls-1" d="M556.05,679.45l19.2-24-4.68-3.75-19.21,24Q553.73,677.54,556.05,679.45Z"/><path class="cls-1" d="M587,708.7,609.46,688l-4.06-4.41-22.47,20.72C584.31,705.76,585.68,707.23,587,708.7Z"/><path class="cls-1" d="M613.32,742.26l25.11-17-3.37-5-25.13,17C611.07,739,612.21,740.6,613.32,742.26Z"/><path class="cls-1" d="M635.85,782.6l42.86-20.45-4.3-9-42.88,20.45C633,776.56,634.47,779.56,635.85,782.6Z"/><path class="cls-1" d="M649.61,819.27l28.53-8.67-1.74-5.74-28.57,8.68C648.44,815.44,649,817.35,649.61,819.27Z"/><path class="cls-1" d="M658.7,861l29.3-4.28-.87-5.94-29.32,4.28C658.13,857.07,658.42,859.05,658.7,861Z"/><path class="cls-1" d="M661.46,897.72c0,1.09,0,2.18,0,3.28,0,.91,0,1.81,0,2.72l29.37.15,0-6Z"/><path class="cls-1" d="M658.77,940.45q-.4,3-.88,5.93l28.72,4.5.92-5.93Z"/><path class="cls-1" d="M649.8,982.09c-.95,3.2-1.94,6.38-3,9.54l45.28,14.27,3-9.53Z"/><path class="cls-1" d="M591.2,807v5.07H562.81a9.28,9.28,0,0,1,.62-3.66,19.36,19.36,0,0,1,3.47-5.72,54.43,54.43,0,0,1,6.9-6.5q7-5.75,9.46-9.1a10.88,10.88,0,0,0,2.46-6.34,7,7,0,0,0-2.24-5.29,8.09,8.09,0,0,0-5.84-2.15,8.27,8.27,0,0,0-6.1,2.28,8.68,8.68,0,0,0-2.31,6.33l-5.42-.55q.56-6.07,4.19-9.25t9.75-3.18q6.18,0,9.79,3.43a11.27,11.27,0,0,1,3.6,8.5,12.94,12.94,0,0,1-1,5.07,19.66,19.66,0,0,1-3.5,5.24,84.11,84.11,0,0,1-8.13,7.56c-3.17,2.65-5.2,4.46-6.1,5.4a17.43,17.43,0,0,0-2.22,2.86Z"/><path class="cls-1" d="M593.86,790.89a39.44,39.44,0,0,1,1.56-12.26,15.3,15.3,0,0,1,4.66-7.17,11.92,11.92,0,0,1,7.78-2.52,12.75,12.75,0,0,1,6.06,1.39,11.59,11.59,0,0,1,4.31,4,21.8,21.8,0,0,1,2.67,6.39,42.7,42.7,0,0,1,1,10.15,39.28,39.28,0,0,1-1.55,12.2,15.25,15.25,0,0,1-4.64,7.18,11.92,11.92,0,0,1-7.81,2.53,11.8,11.8,0,0,1-9.76-4.45Q593.86,803,593.86,790.89Zm5.42,0q0,10.58,2.47,14.07A7.08,7.08,0,0,0,614,805q2.47-3.51,2.47-14.06T614,776.79a7.36,7.36,0,0,0-6.17-3.48,6.76,6.76,0,0,0-5.8,3.07Q599.27,780.31,599.28,790.89Z"/><path class="cls-1" d="M136.67,800.82l5.54-.47a9.92,9.92,0,0,0,2.86,6.08,7.72,7.72,0,0,0,5.4,2,8.41,8.41,0,0,0,6.45-2.87,10.83,10.83,0,0,0,2.63-7.61,9.78,9.78,0,0,0-2.53-7.12,8.83,8.83,0,0,0-6.64-2.61,9.22,9.22,0,0,0-4.6,1.16,9,9,0,0,0-3.22,3l-4.95-.64,4.16-22.06h21.36v5H146l-2.32,11.55a14,14,0,0,1,8.12-2.7,12.85,12.85,0,0,1,9.49,3.9,13.62,13.62,0,0,1,3.87,10,15.65,15.65,0,0,1-3.4,10.08,13.62,13.62,0,0,1-11.28,5.21,13.86,13.86,0,0,1-9.56-3.28A12.78,12.78,0,0,1,136.67,800.82Z"/><path class="cls-1" d="M605.2,976v5.07H576.81a9.36,9.36,0,0,1,.62-3.67,19.44,19.44,0,0,1,3.47-5.71,54.43,54.43,0,0,1,6.9-6.5q7-5.75,9.46-9.1a10.9,10.9,0,0,0,2.46-6.34,7,7,0,0,0-2.24-5.29,8,8,0,0,0-5.84-2.15,8.27,8.27,0,0,0-6.1,2.28,8.65,8.65,0,0,0-2.31,6.33l-5.42-.56q.56-6.06,4.19-9.24t9.75-3.18q6.18,0,9.79,3.43a11.25,11.25,0,0,1,3.6,8.49,12.94,12.94,0,0,1-1,5.07,19.7,19.7,0,0,1-3.5,5.25,86.75,86.75,0,0,1-8.13,7.56q-4.76,4-6.1,5.4a17.43,17.43,0,0,0-2.22,2.86Z"/><path class="cls-1" d="M607.86,969.84l5.53-.47a10,10,0,0,0,2.86,6.08,7.79,7.79,0,0,0,5.41,2,8.4,8.4,0,0,0,6.44-2.87,10.8,10.8,0,0,0,2.64-7.62,9.76,9.76,0,0,0-2.54-7.11,8.83,8.83,0,0,0-6.63-2.61,9.19,9.19,0,0,0-4.6,1.15,9,9,0,0,0-3.22,3l-5-.65L613,938.72h21.36v5H617.17l-2.31,11.54a14,14,0,0,1,8.11-2.69,12.87,12.87,0,0,1,9.5,3.9,13.62,13.62,0,0,1,3.86,10,15.6,15.6,0,0,1-3.4,10.07,13.59,13.59,0,0,1-11.27,5.22,13.93,13.93,0,0,1-9.57-3.28A12.81,12.81,0,0,1,607.86,969.84Z"/><path class="cls-1" d="M121.34,959.9a39.19,39.19,0,0,1,1.57-12.26,15.23,15.23,0,0,1,4.65-7.16,11.92,11.92,0,0,1,7.78-2.52,12.68,12.68,0,0,1,6.07,1.39,11.56,11.56,0,0,1,4.3,4,21.1,21.1,0,0,1,2.67,6.38,42.68,42.68,0,0,1,1,10.15,39.31,39.31,0,0,1-1.56,12.21,15.22,15.22,0,0,1-4.64,7.17,13.06,13.06,0,0,1-17.56-1.91Q121.33,972,121.34,959.9Zm5.42,0q0,10.59,2.47,14.08a7.08,7.08,0,0,0,12.22,0c1.65-2.35,2.48-7,2.48-14.07s-.83-11.76-2.48-14.09a7.34,7.34,0,0,0-6.17-3.48,6.76,6.76,0,0,0-5.8,3.07Q126.77,949.33,126.76,959.9Z"/><path class="cls-1" d="M269,692.34h-5.27V658.73a27.35,27.35,0,0,1-5,3.64,34.94,34.94,0,0,1-5.55,2.72V660a31.27,31.27,0,0,0,7.73-5,19.72,19.72,0,0,0,4.69-5.74H269Z"/><path class="cls-1" d="M279.52,671.16a39.55,39.55,0,0,1,1.56-12.27,15.32,15.32,0,0,1,4.66-7.16,11.9,11.9,0,0,1,7.78-2.52,12.75,12.75,0,0,1,6.06,1.39,11.59,11.59,0,0,1,4.31,4,21.73,21.73,0,0,1,2.67,6.38,42.79,42.79,0,0,1,1,10.16,39.32,39.32,0,0,1-1.55,12.2,15.25,15.25,0,0,1-4.64,7.18,12,12,0,0,1-7.81,2.53,11.8,11.8,0,0,1-9.76-4.45Q279.52,683.25,279.52,671.16Zm5.42,0q0,10.58,2.47,14.07a7.08,7.08,0,0,0,12.22,0q2.47-3.53,2.47-14.06c0-7.08-.82-11.77-2.47-14.1a7.36,7.36,0,0,0-6.17-3.48,6.76,6.76,0,0,0-5.8,3.07Q284.93,660.58,284.94,671.16Z"/><path class="cls-1" d="M458.68,692.34H453.4V658.73a27.24,27.24,0,0,1-5,3.64,34.94,34.94,0,0,1-5.55,2.72V660a31.65,31.65,0,0,0,7.73-5,19.72,19.72,0,0,0,4.69-5.74h3.4Z"/><path class="cls-1" d="M469.18,681.09l5.54-.47a9.92,9.92,0,0,0,2.86,6.08,7.72,7.72,0,0,0,5.4,2,8.41,8.41,0,0,0,6.45-2.87,10.83,10.83,0,0,0,2.63-7.61,9.76,9.76,0,0,0-2.53-7.12,8.83,8.83,0,0,0-6.64-2.61,9.12,9.12,0,0,0-4.6,1.16,9,9,0,0,0-3.22,3l-4.95-.65L474.28,650h21.36v5H478.5l-2.32,11.55a14,14,0,0,1,8.12-2.7,12.85,12.85,0,0,1,9.49,3.9,13.59,13.59,0,0,1,3.87,10,15.6,15.6,0,0,1-3.4,10.07A13.6,13.6,0,0,1,483,693.07a13.86,13.86,0,0,1-9.56-3.28A12.82,12.82,0,0,1,469.18,681.09Z"/><path class="cls-1" d="M1716,920.67l-41.27,3.5.85,10,41.44-3.52Q1716.46,925.67,1716,920.67Z"/><path class="cls-1" d="M1734.59,794.08,1696.73,780l-3.49,9.37,37.84,14.11C1732.2,800.3,1733.36,797.18,1734.59,794.08Z"/><path class="cls-1" d="M1807.67,689.21,1778.22,659l-7.17,7,29.32,30.09Q1804,692.57,1807.67,689.21Z"/><path class="cls-1" d="M1918.29,627.25l-14.7-42.83-9.46,3.25,14.61,42.56C1911.9,629.18,1915.09,628.2,1918.29,627.25Z"/><path class="cls-1" d="M2043.44,618.75l5.36-48.15-9.94-1.11-5.34,48C2036.85,617.83,2040.16,618.25,2043.44,618.75Z"/><path class="cls-1" d="M2159.28,663.49,2186,620.15l-8.51-5.25-26.63,43.21C2153.69,659.86,2156.51,661.64,2159.28,663.49Z"/><path class="cls-1" d="M2244.61,752.36l44.24-28.78-5.46-8.38-44.12,28.71Q2242,748.08,2244.61,752.36Z"/><path class="cls-1" d="M2283.57,868.41l54.06-7.36-1.35-9.91-53.92,7.34C2282.82,861.77,2283.23,865.08,2283.57,868.41Z"/><path class="cls-1" d="M2272.4,979.69q-1.5,4.78-3.17,9.49l53.76,17,3-9.54Z"/><path class="cls-1" d="M1729.45,985.36l-25.25,8c.58,1.91,1.19,3.82,1.81,5.72l25.42-8Q1730.41,988.21,1729.45,985.36Z"/><path class="cls-1" d="M1716.9,864.29c.23-2,.48-4,.76-5.95l-23.83-3.27c-.29,2-.57,4-.82,5.95Z"/><path class="cls-1" d="M1760.67,744c1.1-1.67,2.21-3.34,3.34-5l-20.51-13.38c-1.11,1.67-2.22,3.33-3.29,5Z"/><path class="cls-1" d="M1852.71,655.93c1.72-1,3.44-2,5.18-3l-14.19-23.07c-1.71,1-3.41,2.09-5.1,3.15Z"/><path class="cls-1" d="M1972.61,616.8c2-.19,4-.37,6-.51l-3.33-30.21c-2,.2-4,.43-6,.67Z"/><path class="cls-1" d="M2102.07,634.1l10.83-31.43c-1.89-.66-3.78-1.32-5.68-2L2096.44,632Q2099.27,633,2102.07,634.1Z"/><path class="cls-1" d="M2205.5,701.89l24.68-25.29c-1.42-1.42-2.85-2.81-4.29-4.2l-24.62,25.23C2202.7,699,2204.1,700.46,2205.5,701.89Z"/><path class="cls-1" d="M2270,806.4l34.78-12.93c-.68-1.88-1.39-3.76-2.1-5.62L2268,800.75Q2269,803.57,2270,806.4Z"/><path class="cls-1" d="M2283.87,921.72c-.18,2-.37,4-.6,6l38.8,3.32c.19-2,.38-4,.53-6Z"/><path class="cls-1" d="M1821.79,954.25l-9.52,3,1.51,4.77,9.51-3Q1822.51,956.65,1821.79,954.25Z"/><path class="cls-1" d="M1819.46,856.27l-9.73-2.28-1.14,4.87,9.73,2.28Q1818.86,858.7,1819.46,856.27Z"/><path class="cls-1" d="M1867.51,770.87l-7.22-7-3.47,3.6,7.23,7Q1865.76,772.65,1867.51,770.87Z"/><path class="cls-1" d="M1952.41,721.92l-2.64-9.62-4.83,1.33,2.65,9.62Q1950,722.55,1952.41,721.92Z"/><path class="cls-1" d="M2050.41,723.24l2.64-9.62-4.82-1.32-2.64,9.62Q2048,722.55,2050.41,723.24Z"/><path class="cls-1" d="M2134,774.47l7.22-7-3.47-3.6-7.22,7Q2132.24,772.64,2134,774.47Z"/><path class="cls-1" d="M2179.68,861.14l9.73-2.29-1.15-4.86-9.72,2.28C2178.94,857.88,2179.32,859.51,2179.68,861.14Z"/><path class="cls-1" d="M2176.21,954.24q-.72,2.4-1.5,4.78l9.51,3,1.51-4.77Z"/><path class="cls-1" d="M1824.05,905.05l-20,.74.19,5,20-.75C1824.15,908.38,1824.09,906.72,1824.05,905.05Z"/><path class="cls-1" d="M1846.5,815.11l-17.56-9.56-2.39,4.39,17.56,9.56Q1845.28,817.28,1846.5,815.11Z"/><path class="cls-1" d="M1911.76,749.26l-10.21-17.18-4.3,2.55,10.22,17.2C1908.89,751,1910.31,750.1,1911.76,749.26Z"/><path class="cls-1" d="M1999,726c.84,0,1.67,0,2.5,0V706h-5v20C1997.33,726,1998.16,726,1999,726Z"/><path class="cls-1" d="M2090.53,751.82l10.21-17.19-4.3-2.56-10.21,17.19C2087.68,750.09,2089.11,751,2090.53,751.82Z"/><path class="cls-1" d="M2153.89,819.49l17.56-9.56-2.39-4.39-17.57,9.57Q2152.72,817.28,2153.89,819.49Z"/><path class="cls-1" d="M2174,905c0,1.67-.1,3.34-.18,5l20,.74.19-5Z"/><path class="cls-1" d="M1731.67,935.84l5.54-.47a9.92,9.92,0,0,0,2.86,6.08,7.76,7.76,0,0,0,5.4,2,8.41,8.41,0,0,0,6.45-2.87,10.84,10.84,0,0,0,2.63-7.62,9.75,9.75,0,0,0-2.53-7.11,8.83,8.83,0,0,0-6.64-2.61,9.21,9.21,0,0,0-4.6,1.15,9.07,9.07,0,0,0-3.22,3l-5-.65,4.16-22.06h21.36v5H1741l-2.32,11.54a14,14,0,0,1,8.12-2.69,12.85,12.85,0,0,1,9.49,3.9,13.59,13.59,0,0,1,3.87,10,15.6,15.6,0,0,1-3.4,10.07,13.6,13.6,0,0,1-11.28,5.22,13.91,13.91,0,0,1-9.56-3.28A12.78,12.78,0,0,1,1731.67,935.84Z"/><path class="cls-1" d="M1761.54,843h-5.27V809.4a27.34,27.34,0,0,1-5,3.63,36,36,0,0,1-5.55,2.73v-5.1a31.85,31.85,0,0,0,7.73-5,19.85,19.85,0,0,0,4.69-5.74h3.4Z"/><path class="cls-1" d="M1772,831.75l5.54-.47a9.92,9.92,0,0,0,2.86,6.08,7.73,7.73,0,0,0,5.4,2,8.44,8.44,0,0,0,6.45-2.87,10.82,10.82,0,0,0,2.64-7.62,9.78,9.78,0,0,0-2.54-7.12,8.83,8.83,0,0,0-6.63-2.61,9.19,9.19,0,0,0-4.6,1.16,8.91,8.91,0,0,0-3.23,3l-5-.64,4.16-22.06h21.36v5h-17.14l-2.31,11.54a13.92,13.92,0,0,1,8.11-2.69,12.86,12.86,0,0,1,9.49,3.89,13.62,13.62,0,0,1,3.87,10,15.61,15.61,0,0,1-3.4,10.08,13.6,13.6,0,0,1-11.28,5.22,13.88,13.88,0,0,1-9.56-3.29A12.82,12.82,0,0,1,1772,831.75Z"/><path class="cls-1" d="M1828.06,752.6v5.07h-28.39a9.28,9.28,0,0,1,.61-3.66,19.4,19.4,0,0,1,3.48-5.72,54.43,54.43,0,0,1,6.9-6.5q7-5.74,9.46-9.1a10.88,10.88,0,0,0,2.46-6.34,7.07,7.07,0,0,0-2.24-5.29,8.12,8.12,0,0,0-5.85-2.15,8.2,8.2,0,0,0-6.09,2.29,8.65,8.65,0,0,0-2.32,6.32l-5.41-.55q.55-6.08,4.18-9.25t9.76-3.18q6.18,0,9.79,3.43a11.27,11.27,0,0,1,3.6,8.5,12.78,12.78,0,0,1-1.06,5.07,19.5,19.5,0,0,1-3.5,5.24,84.11,84.11,0,0,1-8.13,7.56q-4.74,4-6.09,5.41a17.46,17.46,0,0,0-2.23,2.85Z"/><path class="cls-1" d="M1830.71,746.42l5.54-.47a9.9,9.9,0,0,0,2.86,6.08,7.73,7.73,0,0,0,5.4,2,8.44,8.44,0,0,0,6.45-2.87,10.88,10.88,0,0,0,2.63-7.62,9.78,9.78,0,0,0-2.53-7.12,8.83,8.83,0,0,0-6.64-2.61,9.22,9.22,0,0,0-4.6,1.16,9,9,0,0,0-3.22,3l-4.95-.64,4.16-22.06h21.36v5H1840l-2.32,11.54a14,14,0,0,1,8.12-2.7,12.85,12.85,0,0,1,9.49,3.9,13.62,13.62,0,0,1,3.87,10,15.61,15.61,0,0,1-3.4,10.08,13.62,13.62,0,0,1-11.28,5.21,13.86,13.86,0,0,1-9.56-3.28A12.78,12.78,0,0,1,1830.71,746.42Z"/><path class="cls-1" d="M1889,684.71l5.27-.7q.9,4.49,3.09,6.46a7.63,7.63,0,0,0,5.32,2,8.51,8.51,0,0,0,6.28-2.58,8.7,8.7,0,0,0,2.56-6.39,8.09,8.09,0,0,0-2.37-6,8.2,8.2,0,0,0-6-2.36,15.14,15.14,0,0,0-3.72.59l.58-4.63a7.94,7.94,0,0,0,.85.06,10.89,10.89,0,0,0,6.07-1.76,6,6,0,0,0,2.69-5.42,6.4,6.4,0,0,0-2-4.8,7,7,0,0,0-5.07-1.91,7.2,7.2,0,0,0-5.13,1.94,9.71,9.71,0,0,0-2.63,5.8l-5.28-.94a13.57,13.57,0,0,1,4.4-8.22,12.69,12.69,0,0,1,8.52-2.91,14,14,0,0,1,6.48,1.51,10.82,10.82,0,0,1,4.52,4.11,10.55,10.55,0,0,1,1.57,5.54,9.14,9.14,0,0,1-1.49,5.07,10.23,10.23,0,0,1-4.43,3.63,10,10,0,0,1,5.92,3.65,11.06,11.06,0,0,1,2.11,6.93,12.68,12.68,0,0,1-4.1,9.53,14.42,14.42,0,0,1-10.37,3.91,13.47,13.47,0,0,1-9.39-3.37A13,13,0,0,1,1889,684.71Z"/><path class="cls-1" d="M1919.29,684.8l5.53-.47a9.9,9.9,0,0,0,2.86,6.08,7.73,7.73,0,0,0,5.4,2,8.44,8.44,0,0,0,6.45-2.87,10.84,10.84,0,0,0,2.64-7.62,9.78,9.78,0,0,0-2.54-7.12,8.83,8.83,0,0,0-6.63-2.61,9.19,9.19,0,0,0-4.6,1.16,8.91,8.91,0,0,0-3.23,3l-5-.64,4.16-22.06h21.36v5H1928.6l-2.31,11.54a14,14,0,0,1,8.11-2.7,12.83,12.83,0,0,1,9.49,3.9,13.62,13.62,0,0,1,3.87,10,15.61,15.61,0,0,1-3.4,10.08,13.59,13.59,0,0,1-11.28,5.21,13.88,13.88,0,0,1-9.56-3.28A12.77,12.77,0,0,1,1919.29,684.8Z"/><path class="cls-1" d="M2019.05,681.05V670.77h-18.63v-4.84L2020,638.1h4.3v27.83h5.8v4.84h-5.8v10.28Zm0-15.12V646.57l-13.45,19.36Z"/><path class="cls-1" d="M2032.51,669.8l5.54-.47a9.9,9.9,0,0,0,2.86,6.08,7.73,7.73,0,0,0,5.4,2,8.44,8.44,0,0,0,6.45-2.87,10.83,10.83,0,0,0,2.63-7.62,9.78,9.78,0,0,0-2.53-7.12,8.83,8.83,0,0,0-6.64-2.61,9.25,9.25,0,0,0-4.6,1.16,9,9,0,0,0-3.22,3l-5-.64,4.16-22.06H2059v5h-17.14l-2.31,11.54a13.93,13.93,0,0,1,8.11-2.7,12.85,12.85,0,0,1,9.49,3.9,13.62,13.62,0,0,1,3.87,10,15.61,15.61,0,0,1-3.4,10.08,13.59,13.59,0,0,1-11.28,5.21,13.88,13.88,0,0,1-9.56-3.28A12.82,12.82,0,0,1,2032.51,669.8Z"/><path class="cls-1" d="M2104.1,714l5.54-.46a9.87,9.87,0,0,0,2.86,6.07,7.73,7.73,0,0,0,5.4,2,8.44,8.44,0,0,0,6.45-2.87,10.8,10.8,0,0,0,2.63-7.62,9.79,9.79,0,0,0-2.53-7.12,8.86,8.86,0,0,0-6.64-2.6,9.24,9.24,0,0,0-4.6,1.15,9.07,9.07,0,0,0-3.22,3l-4.95-.65,4.16-22.06h21.36v5h-17.14l-2.31,11.54a14,14,0,0,1,8.11-2.69,12.88,12.88,0,0,1,9.49,3.89,13.62,13.62,0,0,1,3.87,10,15.61,15.61,0,0,1-3.4,10.08A13.6,13.6,0,0,1,2117.9,726a13.92,13.92,0,0,1-9.56-3.28A12.86,12.86,0,0,1,2104.1,714Z"/><path class="cls-1" d="M2134.47,714l5.54-.46a9.87,9.87,0,0,0,2.86,6.07,7.73,7.73,0,0,0,5.4,2,8.44,8.44,0,0,0,6.45-2.87,10.84,10.84,0,0,0,2.63-7.62,9.79,9.79,0,0,0-2.53-7.12,8.86,8.86,0,0,0-6.64-2.6,9.21,9.21,0,0,0-4.6,1.15,9.07,9.07,0,0,0-3.22,3l-5-.65,4.16-22.06h21.36v5h-17.14l-2.32,11.54a14,14,0,0,1,8.12-2.69,12.88,12.88,0,0,1,9.49,3.89,13.62,13.62,0,0,1,3.87,10,15.61,15.61,0,0,1-3.4,10.08,13.6,13.6,0,0,1-11.28,5.22,13.92,13.92,0,0,1-9.56-3.28A12.78,12.78,0,0,1,2134.47,714Z"/><path class="cls-1" d="M2199.25,764.69l-5.24.41a9.94,9.94,0,0,0-2-4.51,7,7,0,0,0-5.28-2.25,7.21,7.21,0,0,0-4.42,1.4,12.06,12.06,0,0,0-3.93,5.3,28,28,0,0,0-1.49,9.94,12.18,12.18,0,0,1,4.66-4.31,12.48,12.48,0,0,1,5.77-1.41,12,12,0,0,1,9,3.89,13.92,13.92,0,0,1,3.71,10,16.5,16.5,0,0,1-1.75,7.51,12.67,12.67,0,0,1-4.79,5.32,13.06,13.06,0,0,1-6.91,1.85,13.5,13.5,0,0,1-10.75-4.85q-4.17-4.85-4.16-16,0-12.45,4.6-18.11a13.22,13.22,0,0,1,10.81-4.92,11.5,11.5,0,0,1,12.18,10.69Zm-21.53,18.52a12.22,12.22,0,0,0,1.16,5.21,8.62,8.62,0,0,0,3.24,3.8,8.06,8.06,0,0,0,4.36,1.3,7.44,7.44,0,0,0,5.74-2.69,10.63,10.63,0,0,0,2.4-7.33,9.9,9.9,0,0,0-2.37-7,7.79,7.79,0,0,0-6-2.57,8.14,8.14,0,0,0-6.07,2.57A9.22,9.22,0,0,0,2177.72,783.21Z"/><path class="cls-1" d="M2202.26,785.88l5.54-.47a10,10,0,0,0,2.85,6.08,7.81,7.81,0,0,0,5.41,2,8.41,8.41,0,0,0,6.44-2.87,10.8,10.8,0,0,0,2.64-7.62,9.83,9.83,0,0,0-2.53-7.12,8.86,8.86,0,0,0-6.64-2.6,9.21,9.21,0,0,0-4.6,1.15,9,9,0,0,0-3.22,3l-5-.65,4.16-22.06h21.35v5h-17.13l-2.32,11.54a14,14,0,0,1,8.12-2.69,12.88,12.88,0,0,1,9.49,3.89,13.62,13.62,0,0,1,3.87,10,15.67,15.67,0,0,1-3.4,10.08,13.62,13.62,0,0,1-11.28,5.22,13.93,13.93,0,0,1-9.57-3.28A12.81,12.81,0,0,1,2202.26,785.88Z"/><path class="cls-1" d="M2210.24,854.47V849.4H2238v4.1a59.06,59.06,0,0,0-8.13,11.6,70.8,70.8,0,0,0-6.22,14.89,54.67,54.67,0,0,0-2,11.8h-5.42a52,52,0,0,1,2-12.24,64.57,64.57,0,0,1,5.46-13.85,59.31,59.31,0,0,1,7.58-11.23Z"/><path class="cls-1" d="M2240.26,880.54l5.53-.47a10,10,0,0,0,2.86,6.08,7.77,7.77,0,0,0,5.41,2,8.42,8.42,0,0,0,6.44-2.87,10.84,10.84,0,0,0,2.64-7.62,9.82,9.82,0,0,0-2.53-7.12A8.85,8.85,0,0,0,2254,868a9.22,9.22,0,0,0-4.6,1.16,8.87,8.87,0,0,0-3.22,3l-5-.64,4.16-22.06h21.35v5h-17.14L2247.26,866a13.94,13.94,0,0,1,8.11-2.69,12.86,12.86,0,0,1,9.5,3.89,13.61,13.61,0,0,1,3.86,10,15.66,15.66,0,0,1-3.39,10.08,13.62,13.62,0,0,1-11.28,5.21,13.89,13.89,0,0,1-9.57-3.28A12.77,12.77,0,0,1,2240.26,880.54Z"/><path class="cls-1" d="M2202.67,966.92a10,10,0,0,1-4.86-3.43,8.93,8.93,0,0,1-1.58-5.33,10.43,10.43,0,0,1,3.37-7.89,14.17,14.17,0,0,1,18,.08,10.56,10.56,0,0,1,3.43,7.95,8.72,8.72,0,0,1-1.57,5.2,9.89,9.89,0,0,1-4.76,3.42,11,11,0,0,1,8.09,11,12.34,12.34,0,0,1-3.9,9.26,15.86,15.86,0,0,1-20.51,0,12.53,12.53,0,0,1-3.89-9.39,11.36,11.36,0,0,1,2.12-7A10.59,10.59,0,0,1,2202.67,966.92Zm-2.75,10.89a9.46,9.46,0,0,0,1.07,4.37,7.6,7.6,0,0,0,3.18,3.27,9.26,9.26,0,0,0,4.54,1.15,8.51,8.51,0,0,0,6.24-2.43,8.32,8.32,0,0,0,2.46-6.18,8.46,8.46,0,0,0-2.54-6.3,8.68,8.68,0,0,0-6.34-2.49,8.38,8.38,0,0,0-8.61,8.61Zm1.7-19.83a6.68,6.68,0,0,0,2,5,7,7,0,0,0,5.1,1.93,6.81,6.81,0,0,0,5-1.92,6.32,6.32,0,0,0,1.95-4.7,6.59,6.59,0,0,0-2-4.88,7.39,7.39,0,0,0-10,0A6.21,6.21,0,0,0,2201.62,958Z"/><path class="cls-1" d="M2224.93,979l5.53-.47a9.92,9.92,0,0,0,2.86,6.08,7.78,7.78,0,0,0,5.4,2,8.41,8.41,0,0,0,6.45-2.87,10.8,10.8,0,0,0,2.64-7.62,9.76,9.76,0,0,0-2.54-7.11,8.83,8.83,0,0,0-6.63-2.61,9.19,9.19,0,0,0-4.6,1.15,9,9,0,0,0-3.23,3l-4.95-.65,4.16-22.06h21.36v5h-17.14l-2.31,11.54a14,14,0,0,1,8.11-2.69,12.87,12.87,0,0,1,9.5,3.9,13.62,13.62,0,0,1,3.86,10,15.6,15.6,0,0,1-3.4,10.07,13.6,13.6,0,0,1-11.28,5.22,13.92,13.92,0,0,1-9.56-3.28A12.81,12.81,0,0,1,2224.93,979Z"/><path class="cls-1" d="M1832.21,952.48a17.63,17.63,0,0,1,.71-5.51,6.92,6.92,0,0,1,2.09-3.23,5.41,5.41,0,0,1,3.5-1.13,5.67,5.67,0,0,1,2.73.63,5.14,5.14,0,0,1,1.94,1.8,9.75,9.75,0,0,1,1.2,2.88,19,19,0,0,1,.44,4.56,17.88,17.88,0,0,1-.7,5.49,6.87,6.87,0,0,1-2.09,3.24,5.37,5.37,0,0,1-3.52,1.14,5.31,5.31,0,0,1-4.39-2Q1832.22,957.93,1832.21,952.48Zm2.44,0q0,4.77,1.12,6.34a3.18,3.18,0,0,0,5.49,0q1.13-1.57,1.12-6.33t-1.12-6.34a3.31,3.31,0,0,0-2.77-1.57,3.05,3.05,0,0,0-2.61,1.39Q1834.65,947.73,1834.65,952.48Z"/><path class="cls-1" d="M1845.42,871.07v2.28h-12.78a4.22,4.22,0,0,1,.28-1.65,8.9,8.9,0,0,1,1.56-2.57,24.83,24.83,0,0,1,3.11-2.93,26.19,26.19,0,0,0,4.26-4.09,5,5,0,0,0,1.1-2.85,3.14,3.14,0,0,0-1-2.38,3.62,3.62,0,0,0-2.63-1,3.7,3.7,0,0,0-2.74,1,3.89,3.89,0,0,0-1,2.84l-2.44-.25a6,6,0,0,1,1.89-4.16,6.44,6.44,0,0,1,4.39-1.43,6.12,6.12,0,0,1,4.4,1.55,5,5,0,0,1,1.62,3.82,5.93,5.93,0,0,1-.47,2.28,8.83,8.83,0,0,1-1.58,2.36,36.75,36.75,0,0,1-3.66,3.4c-1.42,1.2-2.33,2-2.74,2.43a8,8,0,0,0-1,1.29Z"/><path class="cls-1" d="M1847.29,863.82a17.7,17.7,0,0,1,.7-5.52,6.82,6.82,0,0,1,2.1-3.22,5.34,5.34,0,0,1,3.5-1.14,5.67,5.67,0,0,1,2.73.63,5.24,5.24,0,0,1,1.94,1.81,9.58,9.58,0,0,1,1.2,2.87,19.13,19.13,0,0,1,.43,4.57,17.62,17.62,0,0,1-.7,5.49,6.82,6.82,0,0,1-2.09,3.23,5.87,5.87,0,0,1-7.9-.87C1847.92,870.07,1847.29,867.45,1847.29,863.82Zm2.44,0q0,4.75,1.11,6.33a3.18,3.18,0,0,0,5.5,0q1.11-1.59,1.11-6.33c0-3.18-.37-5.3-1.11-6.34a3.3,3.3,0,0,0-2.78-1.57,3,3,0,0,0-2.61,1.38C1850.13,858.47,1849.73,860.64,1849.73,863.82Z"/><path class="cls-1" d="M1882.65,797.71v-4.63h-8.38v-2.17l8.82-12.53H1885v12.53h2.61v2.17H1885v4.63Zm0-6.8v-8.72l-6.05,8.72Z"/><path class="cls-1" d="M1889.39,788.18a17.7,17.7,0,0,1,.7-5.52,6.82,6.82,0,0,1,2.1-3.22,5.34,5.34,0,0,1,3.5-1.14,5.7,5.7,0,0,1,2.73.63,5.3,5.3,0,0,1,1.94,1.8,9.49,9.49,0,0,1,1.19,2.88,18.55,18.55,0,0,1,.44,4.57,17.66,17.66,0,0,1-.7,5.49,6.82,6.82,0,0,1-2.09,3.23,5.37,5.37,0,0,1-3.51,1.14,5.3,5.3,0,0,1-4.39-2C1890,794.43,1889.39,791.81,1889.39,788.18Zm2.44,0q0,4.76,1.11,6.33a3.18,3.18,0,0,0,5.5,0q1.11-1.57,1.11-6.32c0-3.18-.37-5.3-1.11-6.34a3.31,3.31,0,0,0-2.78-1.57,3,3,0,0,0-2.61,1.38C1892.23,782.83,1891.83,785,1891.83,788.18Z"/><path class="cls-1" d="M1956,746.45l-2.36.18a4.42,4.42,0,0,0-.9-2,3.15,3.15,0,0,0-2.37-1,3.26,3.26,0,0,0-2,.63,5.35,5.35,0,0,0-1.77,2.39,12.28,12.28,0,0,0-.67,4.47,5.51,5.51,0,0,1,2.09-1.94,5.68,5.68,0,0,1,2.6-.64,5.4,5.4,0,0,1,4,1.75,6.29,6.29,0,0,1,1.67,4.52,7.34,7.34,0,0,1-.79,3.38,5.69,5.69,0,0,1-2.15,2.39,5.93,5.93,0,0,1-3.11.83,6.09,6.09,0,0,1-4.84-2.18q-1.87-2.18-1.87-7.19c0-3.74.69-6.45,2.07-8.15a5.92,5.92,0,0,1,4.86-2.21,5.17,5.17,0,0,1,5.49,4.81Zm-9.69,8.33a5.48,5.48,0,0,0,.52,2.35,3.86,3.86,0,0,0,1.45,1.7,3.59,3.59,0,0,0,2,.59,3.33,3.33,0,0,0,2.58-1.21,4.79,4.79,0,0,0,1.08-3.3,4.45,4.45,0,0,0-1.07-3.16,3.52,3.52,0,0,0-2.68-1.15,3.67,3.67,0,0,0-2.73,1.15A4.15,4.15,0,0,0,1946.34,754.78Z"/><path class="cls-1" d="M1958.05,751.51a17.75,17.75,0,0,1,.71-5.52,6.93,6.93,0,0,1,2.09-3.22,5.36,5.36,0,0,1,3.51-1.13,5.66,5.66,0,0,1,2.72.62,5.17,5.17,0,0,1,1.94,1.81,9.58,9.58,0,0,1,1.2,2.87,19.06,19.06,0,0,1,.44,4.57,17.88,17.88,0,0,1-.7,5.49,7,7,0,0,1-2.09,3.23,5.9,5.9,0,0,1-7.91-.86Q1958.06,757,1958.05,751.51Zm2.44,0q0,4.75,1.12,6.33a3.17,3.17,0,0,0,5.49,0q1.13-1.59,1.12-6.33c0-3.18-.37-5.3-1.12-6.34a3.28,3.28,0,0,0-2.77-1.57,3,3,0,0,0-2.61,1.38Q1960.49,746.75,1960.49,751.51Z"/><path class="cls-1" d="M2035.68,750.56a4.5,4.5,0,0,1-2.19-1.54,4.08,4.08,0,0,1-.71-2.4,4.7,4.7,0,0,1,1.52-3.55,6.38,6.38,0,0,1,8.1,0,4.75,4.75,0,0,1,1.55,3.58,4,4,0,0,1-.71,2.34,4.44,4.44,0,0,1-2.14,1.53,5.21,5.21,0,0,1,2.71,1.87,5.14,5.14,0,0,1,.93,3.09,5.54,5.54,0,0,1-1.76,4.16,7.13,7.13,0,0,1-9.22,0,5.64,5.64,0,0,1-1.76-4.23,5.12,5.12,0,0,1,1-3.16A4.8,4.8,0,0,1,2035.68,750.56Zm-1.24,4.91a4.3,4.3,0,0,0,.48,2,3.44,3.44,0,0,0,1.43,1.47,4.19,4.19,0,0,0,2.05.52,3.8,3.8,0,0,0,2.8-1.09,3.75,3.75,0,0,0,1.11-2.79,3.81,3.81,0,0,0-1.14-2.83,3.89,3.89,0,0,0-2.85-1.12,3.78,3.78,0,0,0-3.88,3.88Zm.77-8.93a3,3,0,0,0,.88,2.24,3.12,3.12,0,0,0,2.29.87,3.08,3.08,0,0,0,2.25-.86,2.88,2.88,0,0,0,.88-2.12,2.92,2.92,0,0,0-.91-2.19,3,3,0,0,0-2.24-.89,3.12,3.12,0,0,0-2.26.87A2.78,2.78,0,0,0,2035.21,746.54Z"/><path class="cls-1" d="M2046.37,751.51a17.45,17.45,0,0,1,.71-5.52,6.78,6.78,0,0,1,2.09-3.22,5.35,5.35,0,0,1,3.5-1.13,5.67,5.67,0,0,1,2.73.62,5.24,5.24,0,0,1,1.94,1.81,9.58,9.58,0,0,1,1.2,2.87,19.13,19.13,0,0,1,.43,4.57,17.57,17.57,0,0,1-.7,5.49,6.82,6.82,0,0,1-2.09,3.23,5.88,5.88,0,0,1-7.9-.86Q2046.38,757,2046.37,751.51Zm2.44,0q0,4.75,1.11,6.33a3.18,3.18,0,0,0,5.5,0q1.11-1.59,1.11-6.33c0-3.18-.37-5.3-1.11-6.34a3.3,3.3,0,0,0-2.78-1.57A3,3,0,0,0,2050,745Q2048.81,746.75,2048.81,751.51Z"/><path class="cls-1" d="M2099.62,797.71h-2.38V782.59a12.39,12.39,0,0,1-2.24,1.63,15.4,15.4,0,0,1-2.5,1.23v-2.3a14.3,14.3,0,0,0,3.48-2.26,9.07,9.07,0,0,0,2.11-2.59h1.53Z"/><path class="cls-1" d="M2105,788.18a17.37,17.37,0,0,1,.71-5.52,6.81,6.81,0,0,1,2.09-3.22,5.36,5.36,0,0,1,3.5-1.14,5.67,5.67,0,0,1,2.73.63,5.3,5.3,0,0,1,1.94,1.8,9.75,9.75,0,0,1,1.2,2.88,19.13,19.13,0,0,1,.43,4.57,17.66,17.66,0,0,1-.7,5.49,6.82,6.82,0,0,1-2.09,3.23,5.87,5.87,0,0,1-7.9-.87Q2105,793.63,2105,788.18Zm2.44,0q0,4.76,1.11,6.33a3.18,3.18,0,0,0,5.5,0q1.11-1.57,1.11-6.32c0-3.18-.37-5.3-1.11-6.34a3.3,3.3,0,0,0-2.78-1.57,3,3,0,0,0-2.6,1.38C2107.87,782.83,2107.46,785,2107.46,788.18Z"/><path class="cls-1" d="M2119.36,788.18a17.66,17.66,0,0,1,.71-5.52,6.81,6.81,0,0,1,2.09-3.22,5.36,5.36,0,0,1,3.5-1.14,5.67,5.67,0,0,1,2.73.63,5.3,5.3,0,0,1,1.94,1.8,9.75,9.75,0,0,1,1.2,2.88,19.13,19.13,0,0,1,.43,4.57,18,18,0,0,1-.69,5.49,7,7,0,0,1-2.09,3.23,5.37,5.37,0,0,1-3.52,1.14,5.31,5.31,0,0,1-4.39-2Q2119.36,793.63,2119.36,788.18Zm2.44,0q0,4.76,1.11,6.33a3.18,3.18,0,0,0,5.5,0c.74-1,1.12-3.16,1.12-6.32s-.38-5.3-1.12-6.34a3.3,3.3,0,0,0-2.77-1.57,3,3,0,0,0-2.61,1.38C2122.21,782.83,2121.8,785,2121.8,788.18Z"/><path class="cls-1" d="M2139.06,873.35h-2.37V858.23a12.15,12.15,0,0,1-2.25,1.63,15.4,15.4,0,0,1-2.5,1.23v-2.3a14,14,0,0,0,3.48-2.26,8.9,8.9,0,0,0,2.11-2.59h1.53Z"/><path class="cls-1" d="M2156.93,871.07v2.28h-12.77a4,4,0,0,1,.28-1.65,8.48,8.48,0,0,1,1.56-2.57,24.64,24.64,0,0,1,3.1-2.93,26.19,26.19,0,0,0,4.26-4.09,4.91,4.91,0,0,0,1.11-2.85,3.17,3.17,0,0,0-1-2.38,3.62,3.62,0,0,0-2.63-1,3.68,3.68,0,0,0-2.74,1,3.81,3.81,0,0,0-1,2.84l-2.44-.25a6,6,0,0,1,1.88-4.16,6.44,6.44,0,0,1,4.39-1.43,6.13,6.13,0,0,1,4.41,1.55,5,5,0,0,1,1.62,3.82,5.76,5.76,0,0,1-.48,2.28,8.77,8.77,0,0,1-1.57,2.36,39.2,39.2,0,0,1-3.66,3.4c-1.42,1.2-2.34,2-2.74,2.43a7.5,7.5,0,0,0-1,1.29Z"/><path class="cls-1" d="M2158.8,863.82a17.66,17.66,0,0,1,.71-5.52,6.88,6.88,0,0,1,2.09-3.22,5.36,5.36,0,0,1,3.5-1.14,5.67,5.67,0,0,1,2.73.63,5.17,5.17,0,0,1,1.94,1.81,9.58,9.58,0,0,1,1.2,2.87,19.06,19.06,0,0,1,.44,4.57,17.92,17.92,0,0,1-.7,5.49,7,7,0,0,1-2.09,3.23,5.37,5.37,0,0,1-3.52,1.14,5.31,5.31,0,0,1-4.39-2Q2158.81,869.27,2158.8,863.82Zm2.44,0q0,4.75,1.12,6.33a3.17,3.17,0,0,0,5.49,0q1.13-1.59,1.12-6.33c0-3.18-.37-5.3-1.12-6.34a3.28,3.28,0,0,0-2.77-1.57,3,3,0,0,0-2.61,1.38C2161.65,858.47,2161.24,860.64,2161.24,863.82Z"/><path class="cls-1" d="M2129.38,962H2127V946.89a12.15,12.15,0,0,1-2.25,1.64,16.12,16.12,0,0,1-2.5,1.22v-2.29a14,14,0,0,0,3.48-2.27,8.72,8.72,0,0,0,2.11-2.58h1.53Z"/><path class="cls-1" d="M2142.39,962v-4.63H2134v-2.18l8.82-12.52h1.93v12.52h2.61v2.18h-2.61V962Zm0-6.81V946.5l-6,8.71Z"/><path class="cls-1" d="M2149.12,952.48a17.63,17.63,0,0,1,.71-5.51,6.85,6.85,0,0,1,2.1-3.23,5.37,5.37,0,0,1,3.5-1.13,5.73,5.73,0,0,1,2.73.63,5.19,5.19,0,0,1,1.93,1.8,9.75,9.75,0,0,1,1.2,2.88,19,19,0,0,1,.44,4.56,17.57,17.57,0,0,1-.7,5.49,6.87,6.87,0,0,1-2.09,3.24,5.37,5.37,0,0,1-3.51,1.14,5.28,5.28,0,0,1-4.39-2Q2149.12,957.93,2149.12,952.48Zm2.44,0q0,4.77,1.12,6.34a3.18,3.18,0,0,0,5.49,0q1.13-1.57,1.12-6.33t-1.12-6.34a3.31,3.31,0,0,0-2.77-1.57,3.05,3.05,0,0,0-2.61,1.39Q2151.56,947.73,2151.56,952.48Z"/></svg>