<svg id="scales" xmlns="http://www.w3.org/2000/svg" viewBox="0 0 2388 1618"><defs><style>.cls-1{fill:#fff;}.cls-2{fill:red;}</style></defs><path class="cls-1" d="M707.92,428.48a175,175,0,0,0-251.84,0l2.28,2.12,16.54,16.54c1.38-1.44,2.8-2.86,4.24-4.24l-14.49-14.5A168.65,168.65,0,0,1,514.53,395l7.87,19c1.83-.81,3.67-1.58,5.54-2.31l-7.86-19A168.5,168.5,0,0,1,579,381v20.5c1,0,2,0,3,0s2,0,3,0V381a168.5,168.5,0,0,1,58.92,11.63l-7.86,19q2.79,1.1,5.54,2.31l7.87-19a168.65,168.65,0,0,1,49.88,33.44l-14.49,14.5c1.44,1.38,2.86,2.8,4.24,4.24l16.54-16.54Z"/><path class="cls-1" d="M468.85,480.67h-3.17V460.5a16,16,0,0,1-3,2.18,20.71,20.71,0,0,1-3.34,1.64v-3.06a19.31,19.31,0,0,0,4.65-3,12.08,12.08,0,0,0,2.81-3.45h2Z"/><path class="cls-1" d="M475.15,468a23.51,23.51,0,0,1,.94-7.36,9.16,9.16,0,0,1,2.8-4.3,7.17,7.17,0,0,1,4.66-1.51,7.55,7.55,0,0,1,3.64.84,7,7,0,0,1,2.59,2.4,12.75,12.75,0,0,1,1.59,3.84A25.15,25.15,0,0,1,492,468a23.67,23.67,0,0,1-.94,7.32,9.21,9.21,0,0,1-2.78,4.31,7.18,7.18,0,0,1-4.69,1.52,7.06,7.06,0,0,1-5.85-2.68Q475.15,475.22,475.15,468Zm3.25,0q0,6.35,1.49,8.44a4.25,4.25,0,0,0,7.33,0q1.48-2.11,1.48-8.44t-1.48-8.46a4.42,4.42,0,0,0-3.7-2.09,4,4,0,0,0-3.48,1.85Q478.41,461.62,478.4,468Z"/><path class="cls-1" d="M493.37,468a23.81,23.81,0,0,1,.94-7.36,9.16,9.16,0,0,1,2.8-4.3,7.17,7.17,0,0,1,4.66-1.51,7.55,7.55,0,0,1,3.64.84A6.92,6.92,0,0,1,508,458a13,13,0,0,1,1.6,3.84,25.74,25.74,0,0,1,.58,6.09,23.37,23.37,0,0,1-.94,7.32,9.14,9.14,0,0,1-2.78,4.31,7.18,7.18,0,0,1-4.69,1.52,7.06,7.06,0,0,1-5.85-2.68Q493.37,475.22,493.37,468Zm3.25,0q0,6.35,1.49,8.44a4.25,4.25,0,0,0,7.33,0q1.49-2.11,1.48-8.44t-1.48-8.46a4.42,4.42,0,0,0-3.7-2.09,4.05,4.05,0,0,0-3.48,1.85Q496.63,461.62,496.62,468Z"/><path class="cls-1" d="M658,473.86l3.16-.42a7,7,0,0,0,1.85,3.88,4.61,4.61,0,0,0,3.2,1.18,5.13,5.13,0,0,0,3.77-1.54,5.23,5.23,0,0,0,1.53-3.83,4.84,4.84,0,0,0-1.42-3.6,4.94,4.94,0,0,0-3.62-1.41,8.77,8.77,0,0,0-2.23.35l.35-2.78c.21,0,.38,0,.51,0a6.55,6.55,0,0,0,3.64-1.06,3.62,3.62,0,0,0,1.61-3.25,3.85,3.85,0,0,0-1.17-2.88,4.17,4.17,0,0,0-3-1.15,4.31,4.31,0,0,0-3.07,1.16,5.84,5.84,0,0,0-1.58,3.48l-3.17-.56a8.17,8.17,0,0,1,2.64-4.93,7.6,7.6,0,0,1,5.11-1.75,8.35,8.35,0,0,1,3.89.91,6.53,6.53,0,0,1,2.72,2.47,6.4,6.4,0,0,1,.94,3.32,5.42,5.42,0,0,1-.9,3,6.14,6.14,0,0,1-2.66,2.18,6,6,0,0,1,3.56,2.19,6.68,6.68,0,0,1,1.26,4.16,7.61,7.61,0,0,1-2.46,5.72,8.66,8.66,0,0,1-6.22,2.34,8.11,8.11,0,0,1-5.64-2A7.82,7.82,0,0,1,658,473.86Z"/><path class="cls-1" d="M676.15,468a23.51,23.51,0,0,1,.94-7.36,9.16,9.16,0,0,1,2.8-4.3,7.17,7.17,0,0,1,4.66-1.51,7.55,7.55,0,0,1,3.64.84,7,7,0,0,1,2.59,2.4,12.75,12.75,0,0,1,1.59,3.84A25.15,25.15,0,0,1,693,468a23.67,23.67,0,0,1-.94,7.32,9.21,9.21,0,0,1-2.78,4.31,7.18,7.18,0,0,1-4.69,1.52,7.06,7.06,0,0,1-5.85-2.68Q676.15,475.22,676.15,468Zm3.25,0q0,6.35,1.49,8.44a4.25,4.25,0,0,0,7.33,0q1.49-2.11,1.48-8.44t-1.48-8.46a4.42,4.42,0,0,0-3.7-2.09,4,4,0,0,0-3.48,1.85Q679.41,461.62,679.4,468Z"/><path class="cls-1" d="M694.37,468a23.81,23.81,0,0,1,.94-7.36,9.16,9.16,0,0,1,2.8-4.3,7.17,7.17,0,0,1,4.66-1.51,7.55,7.55,0,0,1,3.64.84A6.92,6.92,0,0,1,709,458a13,13,0,0,1,1.6,3.84,25.74,25.74,0,0,1,.58,6.09,23.37,23.37,0,0,1-.94,7.32,9.14,9.14,0,0,1-2.78,4.31,7.18,7.18,0,0,1-4.69,1.52,7.06,7.06,0,0,1-5.85-2.68Q694.37,475.22,694.37,468Zm3.25,0q0,6.35,1.49,8.44a4.25,4.25,0,0,0,7.33,0q1.48-2.11,1.48-8.44t-1.48-8.46a4.42,4.42,0,0,0-3.7-2.09,4.05,4.05,0,0,0-3.48,1.85Q697.63,461.62,697.62,468Z"/><path class="cls-1" d="M572.76,434.23v3h-17a5.66,5.66,0,0,1,.37-2.2,11.76,11.76,0,0,1,2.09-3.43,32.54,32.54,0,0,1,4.14-3.9,34.58,34.58,0,0,0,5.67-5.46,6.5,6.5,0,0,0,1.48-3.8,4.2,4.2,0,0,0-1.35-3.17,4.8,4.8,0,0,0-3.5-1.3,5,5,0,0,0-3.66,1.37,5.25,5.25,0,0,0-1.39,3.8l-3.25-.33a8,8,0,0,1,2.52-5.55,8.57,8.57,0,0,1,5.85-1.91,8.17,8.17,0,0,1,5.87,2.06,6.75,6.75,0,0,1,2.16,5.1,7.78,7.78,0,0,1-.63,3,11.8,11.8,0,0,1-2.1,3.15,51.94,51.94,0,0,1-4.88,4.53c-1.9,1.59-3.12,2.68-3.65,3.24a10.17,10.17,0,0,0-1.34,1.72Z"/><path class="cls-1" d="M574.35,424.56a23.51,23.51,0,0,1,.94-7.36,9.13,9.13,0,0,1,2.8-4.29,7.12,7.12,0,0,1,4.66-1.52,7.58,7.58,0,0,1,3.64.84,7,7,0,0,1,2.58,2.41,12.69,12.69,0,0,1,1.6,3.83,25.33,25.33,0,0,1,.58,6.09,23.7,23.7,0,0,1-.93,7.32,9.21,9.21,0,0,1-2.78,4.31,7.18,7.18,0,0,1-4.69,1.52A7.08,7.08,0,0,1,576.9,435Q574.35,431.81,574.35,424.56Zm3.25,0q0,6.35,1.49,8.45a4.24,4.24,0,0,0,7.33,0q1.49-2.12,1.48-8.44t-1.48-8.46a4.42,4.42,0,0,0-3.7-2.09,4,4,0,0,0-3.48,1.85Q577.61,418.22,577.6,424.56Z"/><path class="cls-1" d="M592.57,424.56a23.51,23.51,0,0,1,.94-7.36,9.13,9.13,0,0,1,2.8-4.29,7.12,7.12,0,0,1,4.66-1.52,7.55,7.55,0,0,1,3.64.84,6.94,6.94,0,0,1,2.59,2.41,13,13,0,0,1,1.6,3.83,25.86,25.86,0,0,1,.58,6.09,23.37,23.37,0,0,1-.94,7.32,9.21,9.21,0,0,1-2.78,4.31,7.18,7.18,0,0,1-4.69,1.52,7.08,7.08,0,0,1-5.85-2.67Q592.57,431.81,592.57,424.56Zm3.25,0q0,6.35,1.49,8.45a4.24,4.24,0,0,0,7.33,0q1.49-2.12,1.48-8.44t-1.48-8.46a4.41,4.41,0,0,0-3.7-2.09,4.07,4.07,0,0,0-3.48,1.85Q595.83,418.22,595.82,424.56Z"/><path class="cls-1" d="M1919.92,428.48a175,175,0,0,0-251.84,0l2.28,2.12,16.54,16.54c1.38-1.44,2.8-2.86,4.24-4.24l-14.49-14.5A168.65,168.65,0,0,1,1726.53,395l7.87,19c1.83-.81,3.67-1.58,5.54-2.31l-7.86-19A168.5,168.5,0,0,1,1791,381v20.5c1,0,2,0,3,0s2,0,3,0V381a168.5,168.5,0,0,1,58.92,11.63l-7.86,19q2.79,1.1,5.54,2.31l7.87-19a168.65,168.65,0,0,1,49.88,33.44l-14.49,14.5c1.44,1.38,2.86,2.8,4.24,4.24l16.54-16.54Z"/><path class="cls-1" d="M1686.51,480.67V454.9h18.63v3h-15.22v7.89h14.25v3h-14.25v8.78h15.82v3Z"/><path class="cls-1" d="M1888.62,480.67V454.9H1906v3h-14v8h12.09v3H1892v11.71Z"/><path class="cls-1" d="M1785.06,437.27h-3.17V417.11a16.67,16.67,0,0,1-3,2.18,21,21,0,0,1-3.33,1.63v-3.06a19.31,19.31,0,0,0,4.65-3,11.81,11.81,0,0,0,2.81-3.45h2Z"/><path class="cls-1" d="M1789.87,437.71l7.47-26.65h2.53l-7.46,26.65Z"/><path class="cls-1" d="M1816.19,434.23v3h-17a5.48,5.48,0,0,1,.37-2.2,11.51,11.51,0,0,1,2.08-3.43,32.54,32.54,0,0,1,4.14-3.9,35.18,35.18,0,0,0,5.68-5.46,6.55,6.55,0,0,0,1.47-3.8,4.19,4.19,0,0,0-1.34-3.17,4.84,4.84,0,0,0-3.51-1.3,4.94,4.94,0,0,0-3.65,1.37,5.17,5.17,0,0,0-1.39,3.8l-3.26-.33a8.05,8.05,0,0,1,2.52-5.55,8.57,8.57,0,0,1,5.85-1.91,8.17,8.17,0,0,1,5.87,2.06,6.76,6.76,0,0,1,2.17,5.1,7.79,7.79,0,0,1-.64,3,11.8,11.8,0,0,1-2.1,3.15,50.68,50.68,0,0,1-4.88,4.53c-1.89,1.59-3.11,2.68-3.65,3.24a10.17,10.17,0,0,0-1.34,1.72Z"/><path class="cls-2" d="M1726.47,395l-2.44-5.43a175.33,175.33,0,0,0-56,38.92l2.28,2.12,16.54,16.54c1.38-1.44,2.8-2.86,4.24-4.24l-14.49-14.5A168.66,168.66,0,0,1,1726.47,395Z"/><path class="cls-1" d="M1515.92,428.48a175,175,0,0,0-251.84,0l2.29,2.13,16.53,16.53c1.38-1.44,2.8-2.86,4.24-4.24l-14.49-14.5a167.92,167.92,0,0,1,70.7-40.9l5.32,19.84c1.91-.56,3.85-1.07,5.79-1.55L1349.15,386a171,171,0,0,1,81.7,0l-5.31,19.84c1.94.48,3.88,1,5.79,1.55l5.32-19.84a167.92,167.92,0,0,1,70.7,40.9l-14.49,14.5c1.44,1.38,2.86,2.8,4.24,4.24l16.54-16.54Z"/><path class="cls-2" d="M1362.17,383.29l-.74-6a174.72,174.72,0,0,0-97.35,51.15l2.29,2.13,16.53,16.53c1.38-1.44,2.8-2.86,4.24-4.24l-14.49-14.5a167.92,167.92,0,0,1,70.7-40.9l5.32,19.84c1.91-.56,3.85-1.07,5.79-1.55L1349.15,386C1353.44,384.89,1357.79,384,1362.17,383.29Z"/><path class="cls-1" d="M1283.15,468a23.51,23.51,0,0,1,.94-7.36,9.22,9.22,0,0,1,2.79-4.3,7.21,7.21,0,0,1,4.67-1.51,7.55,7.55,0,0,1,3.64.84,7,7,0,0,1,2.59,2.4,12.75,12.75,0,0,1,1.59,3.84A25.15,25.15,0,0,1,1300,468a23.67,23.67,0,0,1-.94,7.32,9.21,9.21,0,0,1-2.78,4.31,7.18,7.18,0,0,1-4.69,1.52,7.06,7.06,0,0,1-5.85-2.68Q1283.15,475.22,1283.15,468Zm3.25,0q0,6.35,1.49,8.44a4.25,4.25,0,0,0,7.33,0q1.48-2.11,1.48-8.44t-1.48-8.46a4.42,4.42,0,0,0-3.7-2.09,4,4,0,0,0-3.48,1.85Q1286.41,461.62,1286.4,468Z"/><path class="cls-1" d="M1477,480.67h-3.17V460.5a16,16,0,0,1-3,2.18,20.71,20.71,0,0,1-3.34,1.64v-3.06a19.05,19.05,0,0,0,4.64-3,12,12,0,0,0,2.82-3.45h2Z"/><path class="cls-1" d="M1484.15,473.92l3.32-.28a6,6,0,0,0,1.72,3.64,4.6,4.6,0,0,0,3.24,1.22,5.06,5.06,0,0,0,3.87-1.72,6.51,6.51,0,0,0,1.58-4.57,5.88,5.88,0,0,0-1.52-4.27,5.32,5.32,0,0,0-4-1.56,5.54,5.54,0,0,0-2.76.69,5.35,5.35,0,0,0-1.94,1.8l-3-.39,2.5-13.23H1500v3h-10.28l-1.39,6.93a8.38,8.38,0,0,1,4.87-1.62,7.73,7.73,0,0,1,5.7,2.34,8.19,8.19,0,0,1,2.32,6,9.4,9.4,0,0,1-2,6.05,8.2,8.2,0,0,1-6.77,3.13,8.35,8.35,0,0,1-5.74-2A7.72,7.72,0,0,1,1484.15,473.92Z"/><path class="cls-1" d="M1503.27,468a23.51,23.51,0,0,1,.94-7.36,9.16,9.16,0,0,1,2.8-4.3,7.17,7.17,0,0,1,4.66-1.51,7.55,7.55,0,0,1,3.64.84,6.92,6.92,0,0,1,2.59,2.4,13,13,0,0,1,1.6,3.84,25.74,25.74,0,0,1,.58,6.09,23.37,23.37,0,0,1-.94,7.32,9.21,9.21,0,0,1-2.78,4.31,7.18,7.18,0,0,1-4.69,1.52,7.06,7.06,0,0,1-5.85-2.68Q1503.27,475.22,1503.27,468Zm3.25,0q0,6.35,1.49,8.44a4.25,4.25,0,0,0,7.33,0q1.48-2.11,1.48-8.44t-1.48-8.46a4.41,4.41,0,0,0-3.7-2.09,4.07,4.07,0,0,0-3.48,1.85Q1506.53,461.62,1506.52,468Z"/><path class="cls-1" d="M1414,442.1h-3.16V421.94a16.2,16.2,0,0,1-3,2.18,20.13,20.13,0,0,1-3.33,1.63V422.7a19.08,19.08,0,0,0,4.64-3,12,12,0,0,0,2.82-3.44h2Z"/><path class="cls-1" d="M1420.27,429.39a23.45,23.45,0,0,1,.94-7.35,9.22,9.22,0,0,1,2.79-4.3,7.14,7.14,0,0,1,4.67-1.51,7.7,7.7,0,0,1,3.64.83,7,7,0,0,1,2.58,2.41,12.8,12.8,0,0,1,1.6,3.83,25.33,25.33,0,0,1,.58,6.09,23.62,23.62,0,0,1-.93,7.32,9.16,9.16,0,0,1-2.78,4.31,7.18,7.18,0,0,1-4.69,1.52,7.06,7.06,0,0,1-5.85-2.67Q1420.27,436.66,1420.27,429.39Zm3.25,0q0,6.35,1.49,8.45a4.24,4.24,0,0,0,7.33,0q1.48-2.11,1.48-8.44t-1.48-8.45a4.41,4.41,0,0,0-3.71-2.09,4.06,4.06,0,0,0-3.48,1.84Q1423.52,423,1423.52,429.39Z"/><path class="cls-1" d="M1439.39,429.39a23.45,23.45,0,0,1,.94-7.35,9.22,9.22,0,0,1,2.79-4.3,7.16,7.16,0,0,1,4.67-1.51,7.7,7.7,0,0,1,3.64.83,7,7,0,0,1,2.58,2.41,12.8,12.8,0,0,1,1.6,3.83,25.33,25.33,0,0,1,.58,6.09,23.62,23.62,0,0,1-.93,7.32,9.16,9.16,0,0,1-2.78,4.31,7.18,7.18,0,0,1-4.69,1.52,7.08,7.08,0,0,1-5.85-2.67Q1439.39,436.66,1439.39,429.39Zm3.25,0q0,6.35,1.49,8.45a4.24,4.24,0,0,0,7.33,0q1.49-2.11,1.48-8.44t-1.48-8.45a4.4,4.4,0,0,0-3.7-2.09,4,4,0,0,0-3.48,1.84Q1442.65,423,1442.64,429.39Z"/><path class="cls-1" d="M1331.16,435.35l3.32-.28a6,6,0,0,0,1.71,3.65,4.69,4.69,0,0,0,3.25,1.22,5,5,0,0,0,3.86-1.72,6.47,6.47,0,0,0,1.59-4.57,5.87,5.87,0,0,0-1.52-4.27,5.29,5.29,0,0,0-4-1.57,5.5,5.5,0,0,0-2.76.7,5.32,5.32,0,0,0-1.93,1.8l-3-.39,2.5-13.24H1347v3h-10.28l-1.39,6.92a8.44,8.44,0,0,1,4.87-1.61,7.72,7.72,0,0,1,5.69,2.33,8.18,8.18,0,0,1,2.32,6,9.42,9.42,0,0,1-2,6,8.17,8.17,0,0,1-6.77,3.13,8.29,8.29,0,0,1-5.74-2A7.64,7.64,0,0,1,1331.16,435.35Z"/><path class="cls-1" d="M1350.28,429.39a23.45,23.45,0,0,1,.94-7.35,9.22,9.22,0,0,1,2.79-4.3,7.16,7.16,0,0,1,4.67-1.51,7.7,7.7,0,0,1,3.64.83,7,7,0,0,1,2.58,2.41,12.8,12.8,0,0,1,1.6,3.83,25.33,25.33,0,0,1,.58,6.09,23.62,23.62,0,0,1-.93,7.32,9.16,9.16,0,0,1-2.78,4.31,7.18,7.18,0,0,1-4.69,1.52,7.08,7.08,0,0,1-5.85-2.67Q1350.28,436.66,1350.28,429.39Zm3.25,0q0,6.35,1.49,8.45a4.24,4.24,0,0,0,7.33,0q1.49-2.11,1.48-8.44t-1.48-8.45a4.4,4.4,0,0,0-3.7-2.09,4,4,0,0,0-3.48,1.84Q1353.54,423,1353.53,429.39Z"/><path class="cls-1" d="M1489.78,386.77V367.44h7.29a16.67,16.67,0,0,1,2.94.19,5.77,5.77,0,0,1,2.39.9,4.73,4.73,0,0,1,1.55,1.87,5.87,5.87,0,0,1,.59,2.63,5.94,5.94,0,0,1-1.57,4.17q-1.58,1.71-5.67,1.71h-5v7.86Zm2.56-10.14h5a5.34,5.34,0,0,0,3.52-.92,3.31,3.31,0,0,0,1-2.6,3.57,3.57,0,0,0-.61-2.08,2.93,2.93,0,0,0-1.62-1.14,11.17,11.17,0,0,0-2.38-.17h-5Z"/><path class="cls-1" d="M1506.25,380.56l2.41-.21a5.24,5.24,0,0,0,.8,2.38,4.27,4.27,0,0,0,1.94,1.5,7.42,7.42,0,0,0,3,.57,7.08,7.08,0,0,0,2.58-.43,3.64,3.64,0,0,0,1.67-1.19,2.82,2.82,0,0,0,.55-1.66,2.56,2.56,0,0,0-.53-1.59,3.93,3.93,0,0,0-1.74-1.14c-.52-.2-1.67-.51-3.44-.94a17.49,17.49,0,0,1-3.73-1.21,5.2,5.2,0,0,1-2.07-1.8,4.38,4.38,0,0,1-.67-2.4,4.87,4.87,0,0,1,.83-2.74,5.12,5.12,0,0,1,2.42-1.93,9.2,9.2,0,0,1,3.55-.66,9.74,9.74,0,0,1,3.79.69,5.52,5.52,0,0,1,2.52,2,5.81,5.81,0,0,1,1,3.05l-2.45.18a4,4,0,0,0-1.34-2.77,5.23,5.23,0,0,0-3.37-.93,5.4,5.4,0,0,0-3.38.85,2.53,2.53,0,0,0-1.06,2,2.2,2.2,0,0,0,.75,1.71,10.14,10.14,0,0,0,3.86,1.38,25.91,25.91,0,0,1,4.28,1.23,6,6,0,0,1,2.49,2,4.85,4.85,0,0,1,.8,2.75,5.25,5.25,0,0,1-.88,2.91,5.8,5.8,0,0,1-2.54,2.12,8.74,8.74,0,0,1-3.72.76,11.12,11.12,0,0,1-4.4-.77,6.11,6.11,0,0,1-2.78-2.3A6.48,6.48,0,0,1,1506.25,380.56Z"/><path class="cls-1" d="M1524.89,386.77V367.44h2.55v19.33Z"/><path class="cls-1" d="M1111.92,428.48a175,175,0,0,0-251.84,0l2.29,2.13,16.53,16.53c1.38-1.44,2.8-2.86,4.24-4.24l-14.49-14.5a167.92,167.92,0,0,1,70.7-40.9l5.32,19.84c1.91-.56,3.85-1.07,5.79-1.55L945.15,386a171,171,0,0,1,81.7,0l-5.31,19.84c1.94.48,3.88,1,5.79,1.55l5.32-19.84a167.92,167.92,0,0,1,70.7,40.9l-14.49,14.5c1.44,1.38,2.86,2.8,4.24,4.24l16.54-16.54Z"/><path class="cls-2" d="M958.17,383.29l-.74-6a174.72,174.72,0,0,0-97.35,51.15l2.29,2.13,16.53,16.53c1.38-1.44,2.8-2.86,4.24-4.24l-14.49-14.5a167.92,167.92,0,0,1,70.7-40.9l5.32,19.84c1.91-.56,3.85-1.07,5.79-1.55L945.15,386C949.44,384.89,953.79,384,958.17,383.29Z"/><path class="cls-1" d="M879.15,468a23.51,23.51,0,0,1,.94-7.36,9.22,9.22,0,0,1,2.79-4.3,7.21,7.21,0,0,1,4.67-1.51,7.55,7.55,0,0,1,3.64.84,7,7,0,0,1,2.59,2.4,12.75,12.75,0,0,1,1.59,3.84A25.15,25.15,0,0,1,896,468a23.67,23.67,0,0,1-.94,7.32,9.21,9.21,0,0,1-2.78,4.31,7.18,7.18,0,0,1-4.69,1.52,7.06,7.06,0,0,1-5.85-2.68Q879.15,475.22,879.15,468Zm3.25,0q0,6.35,1.49,8.44a4.25,4.25,0,0,0,7.33,0q1.49-2.11,1.48-8.44t-1.48-8.46a4.42,4.42,0,0,0-3.7-2.09,4,4,0,0,0-3.48,1.85Q882.41,461.62,882.4,468Z"/><path class="cls-1" d="M1073,480.67h-3.17V460.5a16,16,0,0,1-3,2.18,20.71,20.71,0,0,1-3.34,1.64v-3.06a19.05,19.05,0,0,0,4.64-3,12,12,0,0,0,2.82-3.45h2Z"/><path class="cls-1" d="M1080.15,473.92l3.32-.28a6,6,0,0,0,1.72,3.64,4.6,4.6,0,0,0,3.24,1.22,5.06,5.06,0,0,0,3.87-1.72,6.51,6.51,0,0,0,1.58-4.57,5.88,5.88,0,0,0-1.52-4.27,5.32,5.32,0,0,0-4-1.56,5.54,5.54,0,0,0-2.76.69,5.35,5.35,0,0,0-1.94,1.8l-3-.39,2.5-13.23H1096v3h-10.28l-1.39,6.93a8.38,8.38,0,0,1,4.87-1.62,7.73,7.73,0,0,1,5.7,2.34,8.19,8.19,0,0,1,2.32,6,9.4,9.4,0,0,1-2,6.05,8.2,8.2,0,0,1-6.77,3.13,8.35,8.35,0,0,1-5.74-2A7.72,7.72,0,0,1,1080.15,473.92Z"/><path class="cls-1" d="M1099.27,468a23.51,23.51,0,0,1,.94-7.36,9.16,9.16,0,0,1,2.8-4.3,7.17,7.17,0,0,1,4.66-1.51,7.55,7.55,0,0,1,3.64.84,6.92,6.92,0,0,1,2.59,2.4,13,13,0,0,1,1.6,3.84,25.74,25.74,0,0,1,.58,6.09,23.37,23.37,0,0,1-.94,7.32,9.21,9.21,0,0,1-2.78,4.31,7.18,7.18,0,0,1-4.69,1.52,7.06,7.06,0,0,1-5.85-2.68Q1099.27,475.22,1099.27,468Zm3.25,0q0,6.35,1.49,8.44a4.25,4.25,0,0,0,7.33,0q1.48-2.11,1.48-8.44t-1.48-8.46a4.41,4.41,0,0,0-3.7-2.09,4.07,4.07,0,0,0-3.48,1.85Q1102.52,461.62,1102.52,468Z"/><path class="cls-1" d="M1010,442.1h-3.16V421.94a16.2,16.2,0,0,1-3,2.18,20.13,20.13,0,0,1-3.33,1.63V422.7a19.08,19.08,0,0,0,4.64-3,12,12,0,0,0,2.82-3.44h2Z"/><path class="cls-1" d="M1016.27,429.39a23.45,23.45,0,0,1,.94-7.35,9.22,9.22,0,0,1,2.79-4.3,7.14,7.14,0,0,1,4.67-1.51,7.7,7.7,0,0,1,3.64.83,7,7,0,0,1,2.58,2.41,12.8,12.8,0,0,1,1.6,3.83,25.33,25.33,0,0,1,.58,6.09,23.62,23.62,0,0,1-.93,7.32,9.16,9.16,0,0,1-2.78,4.31,7.18,7.18,0,0,1-4.69,1.52,7.06,7.06,0,0,1-5.85-2.67Q1016.27,436.66,1016.27,429.39Zm3.25,0q0,6.35,1.49,8.45a4.24,4.24,0,0,0,7.33,0q1.48-2.11,1.48-8.44t-1.48-8.45a4.41,4.41,0,0,0-3.71-2.09,4.06,4.06,0,0,0-3.48,1.84Q1019.51,423,1019.52,429.39Z"/><path class="cls-1" d="M1035.39,429.39a23.45,23.45,0,0,1,.94-7.35,9.22,9.22,0,0,1,2.79-4.3,7.16,7.16,0,0,1,4.67-1.51,7.7,7.7,0,0,1,3.64.83,7,7,0,0,1,2.58,2.41,12.8,12.8,0,0,1,1.6,3.83,25.33,25.33,0,0,1,.58,6.09,23.62,23.62,0,0,1-.93,7.32,9.16,9.16,0,0,1-2.78,4.31,7.18,7.18,0,0,1-4.69,1.52,7.08,7.08,0,0,1-5.85-2.67Q1035.39,436.66,1035.39,429.39Zm3.25,0q0,6.35,1.49,8.45a4.24,4.24,0,0,0,7.33,0q1.49-2.11,1.48-8.44t-1.48-8.45a4.4,4.4,0,0,0-3.7-2.09,4,4,0,0,0-3.48,1.84Q1038.65,423,1038.64,429.39Z"/><path class="cls-1" d="M927.16,435.35l3.32-.28a6,6,0,0,0,1.71,3.65,4.69,4.69,0,0,0,3.25,1.22,5,5,0,0,0,3.86-1.72,6.47,6.47,0,0,0,1.59-4.57,5.87,5.87,0,0,0-1.52-4.27,5.29,5.29,0,0,0-4-1.57,5.5,5.5,0,0,0-2.76.7,5.32,5.32,0,0,0-1.93,1.8l-3-.39,2.5-13.24H943v3H932.75l-1.39,6.92a8.44,8.44,0,0,1,4.87-1.61,7.72,7.72,0,0,1,5.69,2.33,8.18,8.18,0,0,1,2.32,6,9.42,9.42,0,0,1-2,6,8.17,8.17,0,0,1-6.77,3.13,8.29,8.29,0,0,1-5.74-2A7.64,7.64,0,0,1,927.16,435.35Z"/><path class="cls-1" d="M946.28,429.39a23.45,23.45,0,0,1,.94-7.35,9.22,9.22,0,0,1,2.79-4.3,7.16,7.16,0,0,1,4.67-1.51,7.7,7.7,0,0,1,3.64.83,7,7,0,0,1,2.58,2.41,12.8,12.8,0,0,1,1.6,3.83,25.33,25.33,0,0,1,.58,6.09,23.62,23.62,0,0,1-.93,7.32,9.16,9.16,0,0,1-2.78,4.31,7.18,7.18,0,0,1-4.69,1.52,7.08,7.08,0,0,1-5.85-2.67Q946.28,436.66,946.28,429.39Zm3.25,0q0,6.35,1.49,8.45a4.24,4.24,0,0,0,7.33,0q1.49-2.11,1.48-8.44t-1.48-8.45a4.4,4.4,0,0,0-3.7-2.09,4,4,0,0,0-3.48,1.84Q949.54,423,949.53,429.39Z"/><path class="cls-1" d="M1085.78,386.77V367.44h7.29a16.67,16.67,0,0,1,2.94.19,5.77,5.77,0,0,1,2.39.9,4.73,4.73,0,0,1,1.55,1.87,5.87,5.87,0,0,1,.59,2.63,5.94,5.94,0,0,1-1.57,4.17q-1.58,1.71-5.67,1.71h-5v7.86Zm2.56-10.14h5a5.34,5.34,0,0,0,3.52-.92,3.31,3.31,0,0,0,1-2.6,3.57,3.57,0,0,0-.61-2.08,2.93,2.93,0,0,0-1.62-1.14,11.17,11.17,0,0,0-2.38-.17h-5Z"/><path class="cls-1" d="M1102.25,380.56l2.41-.21a5.24,5.24,0,0,0,.8,2.38,4.27,4.27,0,0,0,1.94,1.5,7.42,7.42,0,0,0,3,.57,7.08,7.08,0,0,0,2.58-.43,3.64,3.64,0,0,0,1.67-1.19,2.82,2.82,0,0,0,.55-1.66,2.56,2.56,0,0,0-.53-1.59,3.93,3.93,0,0,0-1.74-1.14c-.52-.2-1.67-.51-3.44-.94a17.49,17.49,0,0,1-3.73-1.21,5.2,5.2,0,0,1-2.07-1.8,4.38,4.38,0,0,1-.67-2.4,4.87,4.87,0,0,1,.83-2.74,5.12,5.12,0,0,1,2.42-1.93,9.2,9.2,0,0,1,3.55-.66,9.74,9.74,0,0,1,3.79.69,5.52,5.52,0,0,1,2.52,2,5.81,5.81,0,0,1,1,3.05l-2.45.18a4,4,0,0,0-1.34-2.77,5.23,5.23,0,0,0-3.37-.93,5.4,5.4,0,0,0-3.38.85,2.53,2.53,0,0,0-1.06,2,2.2,2.2,0,0,0,.75,1.71,10.14,10.14,0,0,0,3.86,1.38,25.91,25.91,0,0,1,4.28,1.23,6,6,0,0,1,2.49,2,4.85,4.85,0,0,1,.8,2.75,5.25,5.25,0,0,1-.88,2.91,5.8,5.8,0,0,1-2.54,2.12,8.74,8.74,0,0,1-3.72.76,11.12,11.12,0,0,1-4.4-.77,6.11,6.11,0,0,1-2.78-2.3A6.48,6.48,0,0,1,1102.25,380.56Z"/><path class="cls-1" d="M1120.89,386.77V367.44h2.55v19.33Z"/><path class="cls-1" d="M696.59,397.94V378.61h13v2.28H699.14v6h9.07v2.29h-9.07v8.78Z"/><path class="cls-1" d="M685.09,375.11a3.48,3.48,0,0,1,1.07-2.58,3.66,3.66,0,0,1,5.17,0,3.48,3.48,0,0,1,1.07,2.58,3.66,3.66,0,1,1-7.31,0Zm1.43,0a2.22,2.22,0,1,0,4.44,0,2.11,2.11,0,0,0-.65-1.57,2.21,2.21,0,0,0-3.13,0A2.12,2.12,0,0,0,686.52,375.11Z"/><path class="cls-1" d="M535.36,1076.65a175,175,0,0,0-251.83,0l2.27,2.12,16.54,16.54q2.09-2.16,4.24-4.24l-14.49-14.5A168.57,168.57,0,0,1,342,1043.13l7.86,19q2.75-1.22,5.54-2.31l-7.86-19a168.5,168.5,0,0,1,58.92-11.63v20.5c1,0,2,0,3,0s2,0,3,0v-20.5a168.5,168.5,0,0,1,58.92,11.63l-7.86,19c1.87.73,3.71,1.5,5.54,2.31l7.87-19a168.82,168.82,0,0,1,49.89,33.44l-14.5,14.5c1.44,1.39,2.86,2.8,4.24,4.24l16.54-16.54Z"/><path class="cls-1" d="M296.81,1114.13a23.81,23.81,0,0,1,.94-7.36,9.21,9.21,0,0,1,2.8-4.3,7.19,7.19,0,0,1,4.67-1.51,7.61,7.61,0,0,1,3.64.84,6.91,6.91,0,0,1,2.58,2.41A12.84,12.84,0,0,1,313,1108a25.22,25.22,0,0,1,.58,6.09,23.7,23.7,0,0,1-.93,7.32,9.15,9.15,0,0,1-2.79,4.31,7.17,7.17,0,0,1-4.68,1.52,7.08,7.08,0,0,1-5.86-2.67Q296.81,1121.39,296.81,1114.13Zm3.26,0c0,4.23.49,7,1.48,8.45a4.24,4.24,0,0,0,7.33,0q1.49-2.11,1.49-8.44t-1.49-8.46a4.41,4.41,0,0,0-3.7-2.09,4.07,4.07,0,0,0-3.48,1.85Q300.07,1107.78,300.07,1114.13Z"/><path class="cls-1" d="M487.51,1126.84h-3.16v-20.16a17.42,17.42,0,0,1-3,2.18,21.82,21.82,0,0,1-3.33,1.63v-3.06a19.24,19.24,0,0,0,4.64-3,11.94,11.94,0,0,0,2.81-3.45h2Z"/><path class="cls-1" d="M493.81,1114.13a23.81,23.81,0,0,1,.94-7.36,9.21,9.21,0,0,1,2.8-4.3,7.19,7.19,0,0,1,4.67-1.51,7.54,7.54,0,0,1,3.63.84,6.86,6.86,0,0,1,2.59,2.41A12.84,12.84,0,0,1,510,1108a25.74,25.74,0,0,1,.58,6.09,23.7,23.7,0,0,1-.93,7.32,9.15,9.15,0,0,1-2.79,4.31,7.17,7.17,0,0,1-4.68,1.52,7.08,7.08,0,0,1-5.86-2.67Q493.81,1121.39,493.81,1114.13Zm3.26,0c0,4.23.49,7,1.48,8.45a4.24,4.24,0,0,0,7.33,0q1.49-2.11,1.49-8.44t-1.49-8.46a4.41,4.41,0,0,0-3.7-2.09,4.07,4.07,0,0,0-3.48,1.85Q497.07,1107.78,497.07,1114.13Z"/><path class="cls-1" d="M512,1114.13a23.85,23.85,0,0,1,.93-7.36,9.21,9.21,0,0,1,2.8-4.3,7.19,7.19,0,0,1,4.67-1.51,7.61,7.61,0,0,1,3.64.84,6.91,6.91,0,0,1,2.58,2.41,12.84,12.84,0,0,1,1.6,3.83,25.22,25.22,0,0,1,.58,6.09,23.7,23.7,0,0,1-.93,7.32,9.15,9.15,0,0,1-2.79,4.31,7.17,7.17,0,0,1-4.68,1.52,7.08,7.08,0,0,1-5.86-2.67Q512,1121.39,512,1114.13Zm3.25,0c0,4.23.49,7,1.48,8.45a4.24,4.24,0,0,0,7.33,0q1.49-2.11,1.49-8.44t-1.49-8.46a4.41,4.41,0,0,0-3.7-2.09,4.07,4.07,0,0,0-3.48,1.85Q515.29,1107.78,515.29,1114.13Z"/><path class="cls-1" d="M390,1078.69l3.33-.28a5.92,5.92,0,0,0,1.71,3.65,4.68,4.68,0,0,0,3.24,1.22,5,5,0,0,0,3.87-1.73,6.49,6.49,0,0,0,1.58-4.57,5.86,5.86,0,0,0-1.52-4.27,5.3,5.3,0,0,0-4-1.56,5.48,5.48,0,0,0-4.69,2.49l-3-.38,2.49-13.24h12.82v3H395.6l-1.39,6.93a8.38,8.38,0,0,1,4.87-1.62,7.73,7.73,0,0,1,5.7,2.34,8.16,8.16,0,0,1,2.32,6,9.38,9.38,0,0,1-2,6,8.16,8.16,0,0,1-6.77,3.13,8.37,8.37,0,0,1-5.74-2A7.68,7.68,0,0,1,390,1078.69Z"/><path class="cls-1" d="M408.24,1072.73a23.51,23.51,0,0,1,.94-7.36,9,9,0,0,1,2.79-4.29,7.14,7.14,0,0,1,4.67-1.52,7.61,7.61,0,0,1,3.64.84,7,7,0,0,1,2.58,2.41,13,13,0,0,1,1.6,3.83,25.33,25.33,0,0,1,.58,6.09,23.7,23.7,0,0,1-.93,7.32,9.15,9.15,0,0,1-2.79,4.31,7.13,7.13,0,0,1-4.68,1.52,7,7,0,0,1-5.85-2.67Q408.24,1080,408.24,1072.73Zm3.25,0q0,6.35,1.48,8.45a4.24,4.24,0,0,0,7.33,0q1.49-2.12,1.49-8.44t-1.49-8.45a4.4,4.4,0,0,0-3.7-2.1,4.07,4.07,0,0,0-3.48,1.85Q411.48,1066.38,411.49,1072.73Z"/><path class="cls-1" d="M483.33,1035.88v-19.32h7.29a18.1,18.1,0,0,1,2.94.18,6,6,0,0,1,2.39.9,4.78,4.78,0,0,1,1.54,1.87,6.28,6.28,0,0,1-1,6.81Q495,1028,490.84,1028h-4.95v7.85Zm2.56-10.13h5a5.25,5.25,0,0,0,3.52-.93,3.25,3.25,0,0,0,1-2.59,3.5,3.5,0,0,0-.61-2.08,2.84,2.84,0,0,0-1.61-1.14,10.63,10.63,0,0,0-2.39-.17h-4.94Z"/><path class="cls-1" d="M499.79,1029.67l2.42-.21a5.23,5.23,0,0,0,.79,2.38,4.44,4.44,0,0,0,1.95,1.51,7.37,7.37,0,0,0,3,.57,7.13,7.13,0,0,0,2.59-.44,3.62,3.62,0,0,0,1.67-1.19,2.78,2.78,0,0,0,.54-1.65,2.51,2.51,0,0,0-.52-1.59,4.05,4.05,0,0,0-1.74-1.14,35.17,35.17,0,0,0-3.45-1,17.23,17.23,0,0,1-3.73-1.2,5.17,5.17,0,0,1-2.06-1.8,4.45,4.45,0,0,1-.68-2.41,4.94,4.94,0,0,1,.83-2.73,5.14,5.14,0,0,1,2.43-1.93,9.15,9.15,0,0,1,3.54-.66,9.67,9.67,0,0,1,3.79.69,5.43,5.43,0,0,1,2.53,2,5.87,5.87,0,0,1,1,3l-2.45.19a4,4,0,0,0-1.34-2.77,5.19,5.19,0,0,0-3.37-.94,5.36,5.36,0,0,0-3.38.85,2.55,2.55,0,0,0-1.06,2,2.21,2.21,0,0,0,.75,1.72,10.37,10.37,0,0,0,3.85,1.37,24.42,24.42,0,0,1,4.28,1.24,5.69,5.69,0,0,1,2.49,2,4.76,4.76,0,0,1,.81,2.75,5.25,5.25,0,0,1-.89,2.9,5.8,5.8,0,0,1-2.53,2.13,9,9,0,0,1-3.73.75,11.16,11.16,0,0,1-4.4-.76,6.23,6.23,0,0,1-2.78-2.3A6.57,6.57,0,0,1,499.79,1029.67Z"/><path class="cls-1" d="M518.43,1035.88v-19.32H521v19.32Z"/><path class="cls-1" d="M2111.41,1076.65a175,175,0,0,0-251.83,0l2.27,2.12,16.54,16.54q2.08-2.16,4.24-4.24l-14.49-14.5a168.57,168.57,0,0,1,49.89-33.44l7.86,19q2.74-1.22,5.54-2.31l-7.86-19a168.5,168.5,0,0,1,58.92-11.63v20.5c1,0,2,0,3,0s2,0,3,0v-20.5a168.5,168.5,0,0,1,58.92,11.63l-7.86,19c1.87.73,3.71,1.5,5.54,2.31l7.87-19a168.82,168.82,0,0,1,49.89,33.44l-14.5,14.5c1.44,1.39,2.86,2.8,4.24,4.24l16.54-16.54Z"/><path class="cls-1" d="M1879.45,1126.84v-25.77h18.63v3h-15.22V1112h14.25v3h-14.25v8.77h15.82v3Z"/><path class="cls-1" d="M2086.78,1126.84v-25.77h17.39v3h-14v8h12.1v3h-12.1v11.71Z"/><path class="cls-1" d="M1973.88,1085.44h-3.16v-20.16a16.67,16.67,0,0,1-3,2.18,21.82,21.82,0,0,1-3.33,1.63V1066a19.05,19.05,0,0,0,4.64-3,11.81,11.81,0,0,0,2.81-3.45h2Z"/><path class="cls-1" d="M1978.69,1085.88l7.47-26.65h2.53l-7.45,26.65Z"/><path class="cls-1" d="M2005,1082.4v3h-17a5.69,5.69,0,0,1,.37-2.2,11.76,11.76,0,0,1,2.09-3.43,33,33,0,0,1,4.13-3.9,34.33,34.33,0,0,0,5.68-5.46,6.5,6.5,0,0,0,1.48-3.8,4.2,4.2,0,0,0-1.35-3.17,4.8,4.8,0,0,0-3.5-1.3,5,5,0,0,0-3.66,1.37,5.21,5.21,0,0,0-1.39,3.8l-3.25-.33a8,8,0,0,1,2.51-5.55,8.61,8.61,0,0,1,5.86-1.91,8.17,8.17,0,0,1,5.87,2.06,6.75,6.75,0,0,1,2.16,5.1,7.78,7.78,0,0,1-.63,3,11.8,11.8,0,0,1-2.1,3.15,51.94,51.94,0,0,1-4.88,4.53q-2.85,2.4-3.66,3.24a10.09,10.09,0,0,0-1.33,1.72Z"/><path class="cls-1" d="M1864.36,1035.88v-19.32H1871a16.55,16.55,0,0,1,3.44.27,6.54,6.54,0,0,1,2.83,1.39,7.8,7.8,0,0,1,2.29,3.3,12.86,12.86,0,0,1,.76,4.6,13.65,13.65,0,0,1-.51,3.9,9.79,9.79,0,0,1-1.32,2.81,6.94,6.94,0,0,1-1.76,1.75,7.15,7.15,0,0,1-2.31,1,13.19,13.19,0,0,1-3.11.33Zm2.56-2.28H1871a10.24,10.24,0,0,0,3-.35,4.32,4.32,0,0,0,1.74-1,6.27,6.27,0,0,0,1.42-2.45,12.22,12.22,0,0,0,.5-3.72,9,9,0,0,0-1-4.66,5,5,0,0,0-2.42-2.19,10.16,10.16,0,0,0-3.31-.39h-4.06Z"/><path class="cls-1" d="M1883.24,1035.88v-19.32h14v2.28h-11.42v5.92h10.7V1027h-10.7v6.58h11.87v2.28Z"/><path class="cls-1" d="M1900.65,1035.88v-19.32h13v2.28h-10.48v6h9.07v2.28h-9.07v8.78Z"/><path class="cls-2" d="M1918,1043.13l-2.49-5.41a175.44,175.44,0,0,0-56,38.93l2.27,2.12,16.54,16.54q2.08-2.16,4.24-4.24l-14.49-14.5A168.57,168.57,0,0,1,1918,1043.13Z"/><path class="cls-1" d="M596.46,1041.72l-25.33,4.5-2-2.67H559v-6.67H563a1,1,0,0,0,0-2H551.13a1,1,0,0,0,0,2H555v6.67H544.46v-3.33l-12.33-3v9l11.33,3.33v12.33h32.67s11.16-13.5,13.33-15.66,6.17-3.34,10-2.67A3.45,3.45,0,0,0,596.46,1041.72Z"/><path class="cls-1" d="M602.54,1054.84a2.63,2.63,0,1,1-5.25,0c0-1.45,2.63-7.62,2.63-7.62S602.54,1053.39,602.54,1054.84Z"/><path class="cls-1" d="M1848.78,1057.83h-3.5a3.5,3.5,0,0,1-7,0h-3.5a3.5,3.5,0,0,1-7,0h-3.5a3.5,3.5,0,0,1-7,0h-3.5a3.5,3.5,0,0,1-3.5,3.5v3.5a7,7,0,0,1,10.5,0,7,7,0,0,1,10.5,0,7,7,0,0,1,10.5,0,7,7,0,0,1,10.5,0v-3.5A3.5,3.5,0,0,1,1848.78,1057.83Z"/><path class="cls-1" d="M1846.68,1034.19a7.11,7.11,0,0,1,.1,1.14,7.22,7.22,0,0,1-.26,1.87,4,4,0,0,1-.74,7.92h-.13a7,7,0,0,1,1.07,2.94,7,7,0,0,0,0-13.86Z"/><path class="cls-1" d="M1839.78,1042.92a5.91,5.91,0,0,0-1.64.23l.12,3.2a2.9,2.9,0,0,1,1.52-.43,3,3,0,1,1-2.19,5l-.31.21-.34,3a5.93,5.93,0,0,0,2.84.72,6,6,0,0,0,0-12Z"/><path class="cls-1" d="M1839.78,1029.33a5.93,5.93,0,0,0-2.84.72v3.12l.59.19a3,3,0,1,1,.58,4.47v3.26a5.76,5.76,0,0,0,1.67.24,6,6,0,0,0,0-12Z"/><rect class="cls-1" x="1824.61" y="1035.6" width="3" height="20.96" transform="translate(489.8 2671.89) rotate(-80.39)"/><path class="cls-1" d="M1834.58,1029.6a3.33,3.33,0,1,1-6.5-1.46c.4-1.8,5.32-8.48,5.32-8.48S1835,1027.8,1834.58,1029.6Z"/><path class="cls-1" d="M1822.16,1040.61a3,3,0,0,0,.73.09,3.34,3.34,0,0,0,3.25-2.61c.4-1.79-1.18-9.94-1.18-9.94s-4.92,6.69-5.32,8.48A3.32,3.32,0,0,0,1822.16,1040.61Z"/><path class="cls-1" d="M1827.12,1038.31a3.63,3.63,0,0,1-.2.61l9.63-1.78-.55-3-8.87,1.65A9.83,9.83,0,0,1,1827.12,1038.31Z"/><path class="cls-1" d="M1819.23,1039.68a4.27,4.27,0,0,1-.66-2.26l-5.07.94.55,3,5.63-1A5.11,5.11,0,0,1,1819.23,1039.68Z"/><path class="cls-1" d="M439.73,422.5a7.57,7.57,0,0,1-4.72-1.87,4.08,4.08,0,0,0-2.45-1.13,4.75,4.75,0,0,0-2.67,1.19,7.89,7.89,0,0,1-4.66,1.81,6.71,6.71,0,0,1-4.35-1.78,4.21,4.21,0,0,0-2.82-1.22,3.3,3.3,0,0,0-2.37,1.05,7.11,7.11,0,0,1-5,1.95,9.19,9.19,0,0,1-5.52-2,4.23,4.23,0,0,0-2.31-1,8.41,8.41,0,0,0-2.68,1l-1.65-3.08A11.1,11.1,0,0,1,402.9,416a7.35,7.35,0,0,1,4.26,1.63,6,6,0,0,0,3.57,1.37,3.73,3.73,0,0,0,2.75-1.15,6.54,6.54,0,0,1,4.58-1.85A7.61,7.61,0,0,1,423,418a3.5,3.5,0,0,0,2.22,1.05,4.69,4.69,0,0,0,2.67-1.19,7.94,7.94,0,0,1,4.66-1.81,7.28,7.28,0,0,1,4.52,1.81,4.27,4.27,0,0,0,2.65,1.19,4.56,4.56,0,0,0,2.62-1.1,9,9,0,0,1,5.38-1.9,6.3,6.3,0,0,1,4.4,1.51L449.66,420h0a3.29,3.29,0,0,0-1.93-.49,5.68,5.68,0,0,0-3.44,1.31A7.73,7.73,0,0,1,439.73,422.5Z"/><path class="cls-1" d="M437.23,396.5h-9.92V395h9.92a1.75,1.75,0,0,0,0-3.5h-9.92V390h9.92a1.75,1.75,0,0,0,0-3.5h-9.92v-1.75a2,2,0,0,0-4,0v23.88a4.09,4.09,0,1,0,4,0V400h9.92a1.75,1.75,0,0,0,0-3.5Z"/><path class="cls-1" d="M421,408a6.78,6.78,0,0,0-2.89-.63,6.58,6.58,0,0,0-4.58,1.85,3.73,3.73,0,0,1-2.75,1.15,5.92,5.92,0,0,1-3.57-1.37,7.35,7.35,0,0,0-4.26-1.63,11.1,11.1,0,0,0-4.33,1.38l1.65,3.08a8.41,8.41,0,0,1,2.68-1,4.26,4.26,0,0,1,2.31,1,9.25,9.25,0,0,0,5.52,2,7.11,7.11,0,0,0,5-1.94,3.27,3.27,0,0,1,2.37-1.06,3.31,3.31,0,0,1,1.28.26A6,6,0,0,1,421,408Z"/><path class="cls-1" d="M447.73,407.33a9,9,0,0,0-5.38,1.91,4.54,4.54,0,0,1-2.62,1.09,4.27,4.27,0,0,1-2.65-1.19,7.34,7.34,0,0,0-4.52-1.81,6.31,6.31,0,0,0-2.82.69,6,6,0,0,1,1.56,3.13,2.84,2.84,0,0,1,1.26-.32A4.08,4.08,0,0,1,435,412a7.51,7.51,0,0,0,4.72,1.87,7.73,7.73,0,0,0,4.56-1.68,5.63,5.63,0,0,1,3.44-1.32,3.29,3.29,0,0,1,1.93.49h0l2.47-2.47A6.23,6.23,0,0,0,447.73,407.33Z"/><path class="cls-1" d="M1658.86,392.27a1.24,1.24,0,0,0,.12-1.76l-6-6.89a1.25,1.25,0,0,0-1.88,1.64l3.69,4.24h-.09c0,.14,1.33,14.87,1.33,18.33,0,4.3-1.36,4.3-2.09,4.3s-2.3,0-2.3-9c0-3.35-.85-5.76-2.51-7.16l-.12-.08V385a4,4,0,0,0-4-4h-14a4,4,0,0,0-4,4v9.12h0v23h22V401.26a14.1,14.1,0,0,1,.13,1.91c0,7.27.78,11.47,4.8,11.47,3,0,4.59-2.29,4.59-6.8,0-2.59-.67-10.83-1.07-15.42a1.21,1.21,0,0,0,.58.16A1.24,1.24,0,0,0,1658.86,392.27ZM1631,385h14v9.11h-14Z"/><path class="cls-1" d="M1648.88,417.23h-22a1.5,1.5,0,0,0,0,3h22a1.5,1.5,0,0,0,0-3Z"/><path class="cls-1" d="M1238.12,405.06v3h-17a5.61,5.61,0,0,1,.37-2.19,11.59,11.59,0,0,1,2.08-3.43,32.48,32.48,0,0,1,4.14-3.9,35.18,35.18,0,0,0,5.68-5.46,6.5,6.5,0,0,0,1.48-3.81,4.22,4.22,0,0,0-1.35-3.17,4.83,4.83,0,0,0-3.5-1.29,5,5,0,0,0-3.66,1.37,5.19,5.19,0,0,0-1.39,3.8l-3.25-.34a8,8,0,0,1,2.51-5.54,8.56,8.56,0,0,1,5.86-1.91,8.13,8.13,0,0,1,5.87,2.06,6.75,6.75,0,0,1,2.16,5.09,7.74,7.74,0,0,1-.63,3,11.89,11.89,0,0,1-2.1,3.15,53.12,53.12,0,0,1-4.88,4.54q-2.85,2.38-3.66,3.24a10.44,10.44,0,0,0-1.33,1.71Z"/><path class="cls-1" d="M1230,416.79a20.86,20.86,0,1,1,20.85-20.85A20.88,20.88,0,0,1,1230,416.79Zm0-38.13a17.28,17.28,0,1,0,17.28,17.28A17.3,17.3,0,0,0,1230,378.66Z"/><path class="cls-1" d="M1254.43,395.94a24.35,24.35,0,0,1-8,18l2.41,2.67a28,28,0,0,0,0-41.39l-2.41,2.67A24.36,24.36,0,0,1,1254.43,395.94Z"/><path class="cls-1" d="M1205.58,395.94a24.35,24.35,0,0,1,8-18l-2.4-2.67a27.94,27.94,0,0,0,0,41.39l2.4-2.67A24.34,24.34,0,0,1,1205.58,395.94Z"/><path class="cls-1" d="M827.51,408.1h-3.16V387.94a15.75,15.75,0,0,1-3,2.18,22,22,0,0,1-3.33,1.64V388.7a18.79,18.79,0,0,0,4.64-3,11.92,11.92,0,0,0,2.81-3.44h2Z"/><path class="cls-1" d="M824.11,416.79A20.86,20.86,0,1,1,845,395.94,20.88,20.88,0,0,1,824.11,416.79Zm0-38.13a17.28,17.28,0,1,0,17.28,17.28A17.3,17.3,0,0,0,824.11,378.66Z"/><path class="cls-1" d="M848.54,395.94a24.35,24.35,0,0,1-8,18l2.41,2.67a28,28,0,0,0,0-41.39l-2.41,2.67A24.36,24.36,0,0,1,848.54,395.94Z"/><path class="cls-1" d="M799.68,395.94a24.36,24.36,0,0,1,8-18l-2.41-2.67a28,28,0,0,0,0,41.39l2.41-2.67A24.35,24.35,0,0,1,799.68,395.94Z"/></svg>