<svg id="scales-1" xmlns="http://www.w3.org/2000/svg" viewBox="0 0 2388 1618"><defs><style>.cls-1{fill:#fff;}</style></defs><path class="cls-1" d="M334.67,896.87V871.1h11.42a15.31,15.31,0,0,1,5.24.69,5.75,5.75,0,0,1,2.87,2.46,7.33,7.33,0,0,1,1.07,3.88,6.44,6.44,0,0,1-1.78,4.62,8.94,8.94,0,0,1-5.48,2.39,8.58,8.58,0,0,1,2.05,1.29,17.41,17.41,0,0,1,2.83,3.42l4.49,7h-4.29l-3.41-5.36q-1.5-2.32-2.46-3.55a8,8,0,0,0-1.73-1.73,5.33,5.33,0,0,0-1.56-.68,10.31,10.31,0,0,0-1.9-.13h-3.95v11.45Zm3.41-14.4h7.33a11.06,11.06,0,0,0,3.65-.48,3.9,3.9,0,0,0,2-1.55,4.24,4.24,0,0,0,.68-2.31,3.86,3.86,0,0,0-1.32-3,6.27,6.27,0,0,0-4.2-1.17h-8.15Z"/><path class="cls-1" d="M359.71,896.87V871.1h9.72a24,24,0,0,1,3.92.24,7.86,7.86,0,0,1,3.18,1.21A6.25,6.25,0,0,1,378.6,875a7.86,7.86,0,0,1,.78,3.51,8,8,0,0,1-2.09,5.57q-2.09,2.26-7.56,2.27h-6.61v10.48Zm3.41-13.52h6.66c2.21,0,3.77-.41,4.7-1.23a4.4,4.4,0,0,0,1.39-3.46,4.7,4.7,0,0,0-.82-2.77,3.79,3.79,0,0,0-2.15-1.52,14.81,14.81,0,0,0-3.19-.23h-6.59Z"/><path class="cls-1" d="M382.72,896.87V871.1h5.13l6.1,18.24c.56,1.7,1,3,1.23,3.82.29-.94.75-2.32,1.37-4.13l6.17-17.93h4.59v25.77H404V875.3l-7.48,21.57h-3.08L386,874.93v21.94Z"/><path class="cls-1" d="M336,932.87l5.68-8.09-5.25-7.47h3.29l2.39,3.65q.68,1,1.08,1.74c.43-.64.83-1.21,1.19-1.71l2.62-3.68h3.15l-5.37,7.33,5.78,8.23h-3.24L344.09,928l-.85-1.3-4.09,6.14Z"/><path class="cls-1" d="M368.75,932.87h-2.63v-16.8a13.85,13.85,0,0,1-2.5,1.81,18.09,18.09,0,0,1-2.78,1.37V916.7a16.16,16.16,0,0,0,3.87-2.52,10.12,10.12,0,0,0,2.34-2.87h1.7Z"/><path class="cls-1" d="M374.76,922.28a19.74,19.74,0,0,1,.78-6.13,7.6,7.6,0,0,1,2.33-3.58,6,6,0,0,1,3.89-1.26,6.39,6.39,0,0,1,3,.69,5.66,5.66,0,0,1,2.15,2,10.87,10.87,0,0,1,1.34,3.19,21.42,21.42,0,0,1,.48,5.08,19.62,19.62,0,0,1-.78,6.1,7.59,7.59,0,0,1-2.32,3.59,6,6,0,0,1-3.9,1.26,5.9,5.9,0,0,1-4.88-2.22C375.46,929.22,374.76,926.31,374.76,922.28Zm2.71,0q0,5.28,1.23,7a3.68,3.68,0,0,0,3.06,1.75,3.64,3.64,0,0,0,3.05-1.76c.83-1.17,1.24-3.52,1.24-7s-.41-5.89-1.24-7a3.66,3.66,0,0,0-3.08-1.74,3.37,3.37,0,0,0-2.9,1.54Q377.47,917,377.47,922.28Z"/><path class="cls-1" d="M390.69,922.28a19.74,19.74,0,0,1,.78-6.13,7.67,7.67,0,0,1,2.33-3.58,6,6,0,0,1,3.89-1.26,6.36,6.36,0,0,1,3,.69,5.76,5.76,0,0,1,2.16,2,10.86,10.86,0,0,1,1.33,3.19,21.42,21.42,0,0,1,.48,5.08,19.66,19.66,0,0,1-.77,6.1A7.66,7.66,0,0,1,401.6,932a6,6,0,0,1-3.91,1.26,5.92,5.92,0,0,1-4.88-2.22Q390.69,928.33,390.69,922.28Zm2.71,0q0,5.28,1.24,7a3.54,3.54,0,0,0,6.11,0c.82-1.17,1.23-3.52,1.23-7s-.41-5.89-1.23-7a3.69,3.69,0,0,0-3.09-1.74,3.38,3.38,0,0,0-2.9,1.54Q393.4,917,393.4,922.28Z"/><path class="cls-1" d="M1973.51,896.87V871.1h5.13l6.1,18.24c.56,1.7,1,3,1.23,3.82.29-.94.75-2.32,1.37-4.13l6.17-17.93h4.59v25.77h-3.29V875.3l-7.48,21.57h-3.08l-7.45-21.94v21.94Z"/><path class="cls-1" d="M2002.7,896.87V871.1h9.72a24,24,0,0,1,3.92.24,8,8,0,0,1,3.19,1.21,6.31,6.31,0,0,1,2.06,2.49,8.4,8.4,0,0,1-1.31,9.08q-2.08,2.26-7.56,2.27h-6.61v10.48Zm3.41-13.52h6.67c2.2,0,3.76-.41,4.69-1.23a4.4,4.4,0,0,0,1.39-3.46,4.7,4.7,0,0,0-.82-2.77,3.79,3.79,0,0,0-2.15-1.52,14.76,14.76,0,0,0-3.18-.23h-6.6Z"/><path class="cls-1" d="M2025.92,896.87V871.1h3.41v10.58h13.39V871.1h3.41v25.77h-3.41V884.72h-13.39v12.15Z"/><path class="cls-1" d="M1980.55,932.87V911.39h2.64v12.25l6.24-6.33h3.41l-5.95,5.77,6.55,9.79h-3.25l-5.15-8-1.85,1.79v6.17Z"/><path class="cls-1" d="M1994.78,932.87V917.31h2.36v2.18a5.53,5.53,0,0,1,1.95-1.83,5.41,5.41,0,0,1,2.77-.7,5.08,5.08,0,0,1,2.83.72,3.84,3.84,0,0,1,1.56,2,5.61,5.61,0,0,1,4.81-2.72,4.76,4.76,0,0,1,3.56,1.28,5.49,5.49,0,0,1,1.24,4v10.68h-2.62v-9.8a6.91,6.91,0,0,0-.26-2.28,2.2,2.2,0,0,0-.93-1.12,2.89,2.89,0,0,0-1.58-.42,3.66,3.66,0,0,0-2.72,1.09,4.8,4.8,0,0,0-1.09,3.49v9H2004V922.76a4.47,4.47,0,0,0-.65-2.64,2.45,2.45,0,0,0-2.11-.87,3.84,3.84,0,0,0-2.06.58,3.29,3.29,0,0,0-1.36,1.71,9.52,9.52,0,0,0-.43,3.26v8.07Z"/><path class="cls-1" d="M2017.05,933.23l6.22-22.2h2.11l-6.21,22.2Z"/><path class="cls-1" d="M2026.61,932.87V911.39h2.64v7.71a5.87,5.87,0,0,1,4.65-2.14,6.34,6.34,0,0,1,3,.68,4,4,0,0,1,1.82,1.88,8.64,8.64,0,0,1,.55,3.49v9.86h-2.64V923a4.08,4.08,0,0,0-.85-2.88,3.21,3.21,0,0,0-2.43-.9,4.22,4.22,0,0,0-2.2.61,3.36,3.36,0,0,0-1.47,1.65,7.42,7.42,0,0,0-.44,2.87v8.51Z"/></svg>